<svg width="3127" height="3264" viewBox="0 0 3127 3264" fill="none" xmlns="http://www.w3.org/2000/svg">
<path d="M219.839 1207.31H176.479C129.949 1207.31 85.3256 1225.79 52.4243 1258.69C19.5229 1291.59 1.03906 1336.22 1.03906 1382.75V2345.47C1.03906 2392 19.5229 2436.62 52.4243 2469.52C85.3256 2502.42 129.949 2520.91 176.479 2520.91H771.359C817.889 2520.91 862.513 2502.42 895.414 2469.52C928.315 2436.62 946.799 2392 946.799 2345.47" stroke="#263238" stroke-width="1.10311" stroke-linecap="round" stroke-linejoin="round" stroke-dasharray="4.41 4.41"/>
<path d="M898.319 298.908V108.748C898.319 80.2944 909.606 53.0029 929.703 32.8608C949.8 12.7188 977.066 1.37124 1005.52 1.30768H1779.12C1807.61 1.30768 1834.94 12.6272 1855.09 32.7761C1875.24 52.925 1886.56 80.2528 1886.56 108.748" stroke="#263238" stroke-width="1.10311" stroke-linecap="round" stroke-linejoin="round" stroke-dasharray="4.41 4.41"/>
<path d="M1594.32 3263.15C2440.51 3263.15 3126.48 3167.3 3126.48 3049.07C3126.48 2930.83 2440.51 2834.99 1594.32 2834.99C748.131 2834.99 62.1592 2930.83 62.1592 3049.07C62.1592 3167.3 748.131 3263.15 1594.32 3263.15Z" fill="#6B21A8"/>
<path opacity="0.5" d="M1594.32 3263.15C2440.51 3263.15 3126.48 3167.3 3126.48 3049.07C3126.48 2930.83 2440.51 2834.99 1594.32 2834.99C748.131 2834.99 62.1592 2930.83 62.1592 3049.07C62.1592 3167.3 748.131 3263.15 1594.32 3263.15Z" fill="white"/>
<path d="M3038.64 554.028V1994.51C3038.64 2041.6 3019.94 2086.76 2986.65 2120.06C2953.36 2153.37 2908.21 2172.09 2861.12 2172.11H327.52C280.431 2172.09 235.279 2153.37 201.99 2120.06C168.7 2086.76 150 2041.6 150 1994.51V554.028C150 549.788 150 546.028 150.56 541.548C153.679 496.738 173.676 454.778 206.518 424.134C239.36 393.489 282.602 376.441 327.52 376.428H2861.12C2906.09 376.446 2949.38 393.539 2982.23 424.251C3015.08 454.962 3035.04 497.001 3038.08 541.868C3038.48 545.708 3038.64 549.868 3038.64 554.028Z" fill="white" stroke="#263238" stroke-width="1.10311" stroke-linecap="round" stroke-linejoin="round"/>
<path d="M236.4 608.108H2961.28V1938.75C2961.28 1982.88 2943.75 2025.2 2912.54 2056.41C2881.34 2087.62 2839.01 2105.15 2794.88 2105.15H402.88C358.748 2105.15 316.424 2087.62 285.218 2056.41C254.012 2025.2 236.48 1982.88 236.48 1938.75V608.108H236.4Z" fill="#263238"/>
<path opacity="0.2" d="M2961.36 608.108V1938.75C2961.59 1982.63 2944.39 2024.81 2913.53 2056.02C2882.67 2087.22 2840.68 2104.89 2796.8 2105.15H400.96C357.075 2104.89 315.087 2087.22 284.228 2056.02C253.369 2024.81 236.166 1982.63 236.4 1938.75V608.108H2961.36Z" fill="white"/>
<path d="M3038.08 541.868H150.56C153.678 497.058 173.676 455.098 206.518 424.454C239.359 393.809 282.601 376.761 327.52 376.748H2861.12C2906.04 376.761 2949.28 393.809 2982.12 424.454C3014.96 455.098 3034.96 497.058 3038.08 541.868Z" fill="#6B21A8" stroke="#263238" stroke-width="1.10311" stroke-miterlimit="10"/>
<path d="M505.36 458.988C505.36 465.206 503.517 471.285 500.062 476.455C496.607 481.625 491.697 485.655 485.952 488.034C480.207 490.414 473.886 491.037 467.787 489.824C461.688 488.61 456.086 485.616 451.689 481.219C447.292 476.822 444.298 471.22 443.085 465.121C441.871 459.023 442.494 452.701 444.874 446.956C447.253 441.211 451.283 436.301 456.453 432.846C461.624 429.392 467.702 427.548 473.92 427.548C482.259 427.548 490.256 430.86 496.152 436.756C502.048 442.652 505.36 450.649 505.36 458.988Z" fill="#263238"/>
<path d="M638.32 458.988C638.32 465.206 636.477 471.285 633.022 476.455C629.567 481.625 624.657 485.655 618.912 488.034C613.167 490.414 606.846 491.037 600.747 489.824C594.648 488.61 589.046 485.616 584.649 481.219C580.252 476.822 577.258 471.22 576.045 465.121C574.831 459.023 575.454 452.701 577.834 446.956C580.213 441.211 584.243 436.301 589.413 432.846C594.584 429.392 600.662 427.548 606.88 427.548C615.219 427.548 623.216 430.86 629.112 436.756C635.008 442.652 638.32 450.649 638.32 458.988Z" fill="#263238"/>
<path d="M739.84 490.428C757.204 490.428 771.28 476.352 771.28 458.988C771.28 441.624 757.204 427.548 739.84 427.548C722.477 427.548 708.4 441.624 708.4 458.988C708.4 476.352 722.477 490.428 739.84 490.428Z" fill="#263238"/>
<path d="M2961.28 608.108V1938.75C2961.28 1982.88 2943.75 2025.2 2912.54 2056.41C2881.34 2087.62 2839.01 2105.15 2794.88 2105.15H402.88C364.363 2105.14 327.041 2091.77 297.279 2067.32C267.518 2042.87 247.161 2008.85 239.68 1971.07V1970.59C237.646 1960.04 236.628 1949.33 236.64 1938.59V608.108H2961.28Z" stroke="#263238" stroke-width="1.10311" stroke-miterlimit="10"/>
<path d="M2958.72 813.868C2947.05 807.317 2934.65 802.187 2921.76 798.588L2906.8 731.788H2843.28L2828.48 798.588C2815.52 802.122 2803.05 807.255 2791.36 813.868L2734 777.148L2689.12 821.868L2725.2 879.228C2718.59 890.923 2713.46 903.391 2709.92 916.348L2643.12 931.148V994.668L2709.92 1009.63C2713.42 1022.65 2718.56 1035.17 2725.2 1046.91L2688.48 1104.67L2733.44 1149.55L2791.12 1112.83C2802.79 1119.45 2815.23 1124.61 2828.16 1128.19L2843.04 1194.91H2906.32L2921.2 1128.19C2934.09 1124.57 2946.5 1119.42 2958.16 1112.83L2961.12 1114.75V812.268L2958.72 813.868ZM2875.2 1045.87C2858.96 1045.87 2843.09 1041.05 2829.59 1032.03C2816.09 1023.01 2805.57 1010.18 2799.36 995.18C2793.15 980.177 2791.53 963.669 2794.7 947.745C2797.88 931.821 2805.7 917.196 2817.19 905.72C2828.68 894.244 2843.31 886.433 2859.24 883.275C2875.16 880.117 2891.67 881.754 2906.67 887.979C2921.66 894.203 2934.48 904.736 2943.49 918.245C2952.5 931.753 2957.3 947.63 2957.28 963.868C2957.28 974.643 2955.16 985.312 2951.03 995.266C2946.9 1005.22 2940.86 1014.26 2933.23 1021.88C2925.61 1029.49 2916.56 1035.53 2906.6 1039.65C2896.65 1043.76 2885.98 1045.88 2875.2 1045.87Z" fill="#263238"/>
<path d="M1813.92 878.268V744.348L1673.12 713.068C1665.52 685.861 1654.78 659.631 1641.12 634.908L1658.16 608.108H993.36L1009.76 634.188C995.929 658.802 985.182 685.026 977.76 712.268L836.88 743.628V877.868L977.76 909.308C985.182 936.752 995.928 963.188 1009.76 988.028L932.4 1109.71L1027.2 1204.43L1148.8 1126.99C1173.47 1140.86 1199.71 1151.74 1226.96 1159.39L1258.32 1299.79H1391.92L1423.44 1159.07C1450.6 1151.39 1476.76 1140.51 1501.36 1126.67L1623.04 1204.11L1717.76 1109.39L1640.88 987.708C1654.51 963.023 1665.25 936.851 1672.88 909.708L1813.92 878.268ZM1325.92 984.348C1291.7 984.348 1258.24 974.199 1229.78 955.185C1201.33 936.171 1179.15 909.146 1166.05 877.527C1152.95 845.908 1149.53 811.116 1156.2 777.549C1162.88 743.983 1179.36 713.15 1203.56 688.95C1227.76 664.75 1258.59 648.269 1292.16 641.593C1325.73 634.916 1360.52 638.343 1392.14 651.44C1423.76 664.537 1450.78 686.715 1469.8 715.172C1488.81 743.628 1498.96 777.084 1498.96 811.308C1498.97 834.035 1494.5 856.541 1485.81 877.54C1477.12 898.539 1464.37 917.618 1448.3 933.689C1432.23 949.759 1413.15 962.505 1392.15 971.197C1371.15 979.89 1348.65 984.358 1325.92 984.348Z" fill="#263238"/>
<path d="M925.36 1797.87L931.04 1691.55L820.88 1660.51C815.767 1638.66 808.198 1617.46 798.32 1597.31L864.88 1503.87L793.52 1424.75L693.84 1480.75C674.787 1468.76 654.412 1459.02 633.12 1451.71L614.08 1338.75L507.84 1333.87L477.12 1444.35C455.232 1449.26 434.014 1456.78 413.92 1466.75L320.56 1400.27L241.28 1471.55L297.76 1571.31C285.652 1590.28 275.875 1610.64 268.64 1631.95L236.64 1637.23V1781.23L260 1787.79C264.847 1809.71 272.342 1830.96 282.32 1851.07L236.4 1915.47L239.44 1970.59V1971.07L286.88 2023.63L386.72 1967.23C405.741 1979.46 426.186 1989.32 447.6 1996.59L466.32 2105.07L467.2 2109.63L573.44 2115.23L576.24 2105.07L604.16 2004.83C626.147 1999.9 647.47 1992.39 667.68 1982.43L760.88 2048.83L840.08 1977.63L784.08 1877.79C796.076 1858.84 805.721 1838.51 812.8 1817.23L925.36 1797.87ZM643.2 1631.87C625.002 1611.63 601.209 1597.24 574.831 1590.52C548.453 1583.8 520.675 1585.06 495.011 1594.13C469.348 1603.2 446.952 1619.68 430.657 1641.49C414.361 1663.29 404.898 1689.44 403.465 1716.62C402.032 1743.8 408.693 1770.8 422.606 1794.19C436.519 1817.59 457.058 1836.33 481.625 1848.05C506.192 1859.77 533.684 1863.95 560.622 1860.04C587.56 1856.13 612.734 1844.32 632.96 1826.11C659.966 1801.71 676.205 1767.61 678.124 1731.26C680.043 1694.92 667.486 1659.29 643.2 1632.19V1631.87Z" fill="#263238"/>
<path d="M1775.12 1639.39C1779.23 1622.92 1781.41 1606.04 1781.6 1589.07L1858 1549.07L1836.88 1471.55L1750.64 1475.55C1741.91 1461.06 1731.52 1447.64 1719.68 1435.55L1745.2 1353.07L1675.6 1313.07L1617.36 1376.59C1600.93 1372.62 1584.1 1370.47 1567.2 1370.19L1527.2 1293.79L1449.76 1314.83L1453.84 1401.15C1439.35 1409.88 1425.93 1420.27 1413.84 1432.11L1331.28 1406.59L1291.28 1476.11L1355.28 1534.27C1351.14 1550.67 1349.02 1567.51 1348.96 1584.43L1272.4 1624.43L1293.52 1701.87L1379.92 1697.79C1388.48 1712.35 1398.83 1725.79 1410.72 1737.79L1385.04 1819.87L1454.72 1859.87L1512.64 1796.83C1529.09 1800.97 1545.99 1803.09 1562.96 1803.15L1602.96 1879.63L1680.4 1858.59L1676.96 1784.83L1676.4 1772.19C1691.09 1763.54 1704.69 1753.14 1716.88 1741.23L1799.36 1766.83L1833.44 1707.31L1839.2 1697.23L1775.12 1639.39ZM1592.16 1686.43C1572.3 1691.9 1551.26 1691.36 1531.71 1684.86C1512.16 1678.37 1494.99 1666.21 1482.35 1649.94C1469.72 1633.66 1462.21 1614.01 1460.77 1593.46C1459.32 1572.91 1464.02 1552.39 1474.25 1534.51C1484.48 1516.63 1499.79 1502.19 1518.24 1493.03C1536.69 1483.86 1557.45 1480.39 1577.88 1483.03C1598.31 1485.68 1617.49 1494.34 1632.99 1507.9C1648.5 1521.47 1659.62 1539.33 1664.96 1559.23C1672.07 1585.75 1668.41 1614 1654.77 1637.83C1641.14 1661.66 1618.63 1679.13 1592.16 1686.43Z" fill="#263238"/>
<path d="M2660.88 1775.71L2678.48 1669.31L2570.8 1626.03C2568.36 1603.35 2563.17 1581.06 2555.36 1559.63L2632.88 1473.31L2570.16 1385.31L2463.28 1430.67C2445.54 1416.44 2426.14 1404.41 2405.52 1394.83L2399.28 1278.91L2292.88 1261.31L2249.28 1368.51C2226.7 1371.16 2204.5 1376.39 2183.12 1384.11L2096.56 1306.59L2008.96 1369.31L2054.4 1476.11C2041.89 1491.72 2031.03 1508.58 2022 1526.43C2020.8 1528.91 2019.52 1531.39 2018.4 1533.87L1902.56 1540.27L1884.88 1646.51L1902.32 1653.55L1992.56 1689.95C1995.02 1712.52 2000.21 1734.7 2008 1756.03L1930.32 1842.91L1993.12 1930.91L2099.92 1885.31C2117.61 1899.66 2136.98 1911.8 2157.6 1921.47L2163.6 2036.83L2269.92 2054.43L2313.44 1948.03C2336.07 1945.56 2358.31 1940.34 2379.68 1932.51L2466.08 2010.03L2554.08 1947.23L2508.64 1840.35C2523.12 1822.59 2535.34 1803.11 2545.04 1782.35L2660.88 1775.71ZM2362.48 1770.91C2340.1 1786.97 2313.45 1796.03 2285.92 1796.95C2258.38 1797.86 2231.2 1790.59 2207.8 1776.06C2184.39 1761.52 2165.83 1740.37 2154.45 1715.28C2143.07 1690.19 2139.38 1662.29 2143.86 1635.11C2148.33 1607.93 2160.77 1582.68 2179.6 1562.57C2198.42 1542.45 2222.79 1528.38 2249.61 1522.11C2276.44 1515.85 2304.52 1517.68 2330.31 1527.38C2356.1 1537.07 2378.43 1554.2 2394.48 1576.59C2415.98 1606.62 2424.67 1643.97 2418.64 1680.41C2412.61 1716.85 2392.35 1749.4 2362.32 1770.91H2362.48Z" fill="#263238"/>
<path d="M1218.96 988.028H382.319C324.396 988.028 277.439 1034.98 277.439 1092.91V2251.23C277.439 2309.15 324.396 2356.11 382.319 2356.11H1218.96C1276.88 2356.11 1323.84 2309.15 1323.84 2251.23V1092.91C1323.84 1034.98 1276.88 988.028 1218.96 988.028Z" fill="#6B21A8" stroke="#263238" stroke-width="1.10311" stroke-miterlimit="10"/>
<path opacity="0.2" d="M1218.96 988.028H382.319C324.396 988.028 277.439 1034.98 277.439 1092.91V2251.23C277.439 2309.15 324.396 2356.11 382.319 2356.11H1218.96C1276.88 2356.11 1323.84 2309.15 1323.84 2251.23V1092.91C1323.84 1034.98 1276.88 988.028 1218.96 988.028Z" fill="black"/>
<path d="M1421.2 1196.27V2354.59C1421.21 2368.37 1418.5 2382.01 1413.24 2394.75C1407.97 2407.48 1400.25 2419.05 1390.51 2428.8C1380.77 2438.55 1369.2 2446.28 1356.47 2451.56C1343.74 2456.83 1330.1 2459.55 1316.32 2459.55H479.679C465.906 2459.54 452.27 2456.81 439.549 2451.53C426.829 2446.25 415.273 2438.52 405.541 2428.77C395.809 2419.03 388.093 2407.46 382.832 2394.73C377.571 2382 374.868 2368.36 374.879 2354.59V1196.27C374.879 1168.47 385.918 1141.8 405.569 1122.13C425.221 1102.47 451.877 1091.41 479.679 1091.39H1316.32C1344.13 1091.39 1370.81 1102.44 1390.48 1122.11C1410.15 1141.78 1421.2 1168.45 1421.2 1196.27Z" fill="white" stroke="#263238" stroke-width="1.10311" stroke-linecap="round" stroke-linejoin="round"/>
<path d="M1421.2 1196.27V1258.27H374.88V1196.27C374.88 1168.47 385.919 1141.8 405.57 1122.13C425.222 1102.47 451.878 1091.41 479.68 1091.39H1316.32C1344.14 1091.39 1370.81 1102.44 1390.48 1122.11C1410.15 1141.78 1421.2 1168.45 1421.2 1196.27Z" fill="#6B21A8" stroke="#263238" stroke-width="1.10311" stroke-miterlimit="10"/>
<path d="M730.719 1330.11H473.279V1373.31H730.719V1330.11Z" fill="#6B21A8"/>
<path d="M730.719 1717.23H473.279V1760.43H730.719V1717.23Z" fill="#6B21A8"/>
<path d="M730.719 2068.27H473.279V2111.47H730.719V2068.27Z" fill="#6B21A8"/>
<path d="M1204.4 1437.07H473.279V1468.75H1204.4V1437.07Z" fill="#263238"/>
<path d="M1072.56 1497.63H473.279V1528.51H1072.56V1497.63Z" fill="#263238"/>
<path d="M1151.04 1557.23H473.279V1588.11H1151.04V1557.23Z" fill="#263238"/>
<path d="M1151.04 1616.75H473.279V1647.63H1151.04V1616.75Z" fill="#263238"/>
<path d="M1204.4 1788.11H473.279V1819.79H1204.4V1788.11Z" fill="#263238"/>
<path d="M1072.56 1848.67H473.279V1879.55H1072.56V1848.67Z" fill="#263238"/>
<path d="M1151.04 1908.27H473.279V1939.15H1151.04V1908.27Z" fill="#263238"/>
<path d="M1204.4 2173.55H473.279V2205.23H1204.4V2173.55Z" fill="#263238"/>
<path d="M1072.56 2234.19H473.279V2265.07H1072.56V2234.19Z" fill="#263238"/>
<path d="M1151.04 2293.79H473.279V2324.67H1151.04V2293.79Z" fill="#263238"/>
<path d="M2600.48 288.188V756.348C2600.48 772.775 2597.24 789.041 2590.95 804.217C2584.67 819.393 2575.45 833.181 2563.83 844.793C2552.21 856.405 2538.42 865.613 2523.24 871.893C2508.06 878.172 2491.79 881.398 2475.36 881.388H1397.12C1380.69 881.398 1364.42 878.172 1349.24 871.893C1334.06 865.613 1320.27 856.405 1308.65 844.793C1297.03 833.181 1287.81 819.393 1281.53 804.217C1275.24 789.041 1272 772.775 1272 756.348V288.188C1272.02 255.01 1285.21 223.198 1308.67 199.738C1332.13 176.278 1363.94 163.089 1397.12 163.068H2475.36C2508.54 163.068 2540.37 176.25 2563.83 199.714C2587.3 223.179 2600.48 255.004 2600.48 288.188Z" fill="white" stroke="#222221" stroke-width="1.10311" stroke-miterlimit="10"/>
<path d="M2600.48 288.188V298.908H1272V288.188C1272.02 255.01 1285.21 223.198 1308.67 199.738C1332.13 176.278 1363.94 163.089 1397.12 163.068H2475.36C2508.54 163.068 2540.37 176.25 2563.83 199.714C2587.3 223.179 2600.48 255.004 2600.48 288.188Z" fill="#6B21A8" stroke="#263238" stroke-width="1.10311" stroke-miterlimit="10"/>
<path d="M1467.2 253.388C1464.52 256.077 1461.09 257.911 1457.37 258.655C1453.64 259.4 1449.78 259.022 1446.27 257.571C1442.76 256.119 1439.76 253.658 1437.65 250.499C1435.53 247.341 1434.41 243.627 1434.41 239.828C1434.41 236.028 1435.53 232.314 1437.65 229.156C1439.76 225.997 1442.76 223.537 1446.27 222.085C1449.78 220.633 1453.64 220.255 1457.37 221C1461.09 221.745 1464.52 223.578 1467.2 226.268C1470.77 229.877 1472.77 234.75 1472.77 239.828C1472.77 244.905 1470.77 249.778 1467.2 253.388Z" fill="#263238"/>
<path d="M1556.16 253.388C1553.48 256.077 1550.05 257.911 1546.33 258.655C1542.6 259.4 1538.74 259.022 1535.23 257.571C1531.72 256.119 1528.72 253.658 1526.61 250.499C1524.49 247.341 1523.37 243.627 1523.37 239.828C1523.37 236.028 1524.49 232.314 1526.61 229.156C1528.72 225.997 1531.72 223.537 1535.23 222.085C1538.74 220.633 1542.6 220.255 1546.33 221C1550.05 221.745 1553.48 223.578 1556.16 226.268C1559.73 229.877 1561.73 234.75 1561.73 239.828C1561.73 244.905 1559.73 249.778 1556.16 253.388Z" fill="#263238"/>
<path d="M1645.12 253.388C1642.44 256.077 1639.01 257.911 1635.29 258.655C1631.56 259.4 1627.7 259.022 1624.19 257.571C1620.68 256.119 1617.68 253.658 1615.57 250.499C1613.45 247.341 1612.33 243.627 1612.33 239.828C1612.33 236.028 1613.45 232.314 1615.57 229.156C1617.68 225.997 1620.68 223.537 1624.19 222.085C1627.7 220.633 1631.56 220.255 1635.29 221C1639.01 221.745 1642.44 223.578 1645.12 226.268C1648.69 229.877 1650.69 234.75 1650.69 239.828C1650.69 244.905 1648.69 249.778 1645.12 253.388Z" fill="#263238"/>
<path d="M1790.96 384.988H1356.72V760.348H1790.96V384.988Z" stroke="#263238" stroke-width="1.10311" stroke-linecap="round" stroke-linejoin="round" stroke-dasharray="4.41 4.41"/>
<path d="M2357.76 384.988H1858V411.388H2357.76V384.988Z" fill="#263238"/>
<path d="M2241.36 439.628H1858V465.948H2241.36V439.628Z" fill="#263238"/>
<path d="M2428.8 494.028H1858V520.668H2428.8V494.028Z" fill="#263238"/>
<path d="M2344.08 547.068H1858V573.708H2344.08V547.068Z" fill="#263238"/>
<path d="M2636.8 1450.11H2392.4C2363.55 1450.11 2340.16 1473.5 2340.16 1502.35V1645.79C2340.16 1674.64 2363.55 1698.03 2392.4 1698.03H2636.8C2665.65 1698.03 2689.04 1674.64 2689.04 1645.79V1502.35C2689.04 1473.5 2665.65 1450.11 2636.8 1450.11Z" fill="white" stroke="#263238" stroke-width="1.10311" stroke-linecap="round" stroke-linejoin="round"/>
<path d="M2452.72 1524.67L2385.6 1566.75L2447.92 1621.95" stroke="#263238" stroke-width="1.10311" stroke-linecap="round" stroke-linejoin="round"/>
<path d="M2574.96 1625.95L2635.28 1574.59L2565.68 1528.99" stroke="#263238" stroke-width="1.10311" stroke-linecap="round" stroke-linejoin="round"/>
<path d="M2485.36 1657.63L2534.88 1502.27" stroke="#263238" stroke-width="1.10311" stroke-linecap="round" stroke-linejoin="round"/>
<path d="M1969.2 3009.63C1969.2 3009.63 1737.2 3076.11 1704.8 3087.63C1675.36 3098.03 1595.52 3126.03 1535.6 3117.31C1529.82 3116.48 1524.1 3115.25 1518.48 3113.63C1457.76 3095.55 1430.48 3078.67 1422.48 3040.51C1414.48 3002.35 1444.72 2974.19 1473.84 2956.19C1502.96 2938.19 1660.88 2919.39 1660.88 2919.39L1699.04 2930.59L1969.2 3009.63Z" fill="#6B21A8"/>
<path d="M1535.6 3117.31C1529.82 3116.48 1524.1 3115.25 1518.48 3113.63C1457.76 3095.55 1430.48 3078.67 1422.48 3040.51C1414.48 3002.35 1444.72 2974.19 1473.84 2956.19C1502.96 2938.19 1660.88 2919.39 1660.88 2919.39L1699.04 2930.59C1664.48 2946.59 1535.84 2955.31 1507.76 2971.47C1479.68 2987.63 1466.16 3018.03 1482.72 3059.47C1491.6 3081.07 1515.28 3102.27 1535.6 3117.31Z" fill="white"/>
<path d="M1934.32 3019.07C1934.32 3019.07 1760.08 3064.19 1690.96 3093.07C1621.84 3121.95 1490.08 3134.59 1442.96 3075.07C1395.84 3015.55 1437.52 2964.19 1484.48 2952.75C1531.44 2941.31 1626.4 2923.31 1678.24 2930.59" stroke="#263238" stroke-width="1.10311" stroke-linecap="round" stroke-linejoin="round"/>
<path d="M1539.04 3114.19C1539.04 3114.19 1450.4 3065.55 1479.84 2997.39C1501.6 2947.15 1619.84 2958.03 1678.4 2930.59" stroke="#263238" stroke-width="1.10311" stroke-linecap="round" stroke-linejoin="round"/>
<path d="M2675.84 3128.11C2673.44 3152.11 2665.04 3174.59 2641.04 3188.75C2625.04 3198.19 2602.32 3203.79 2569.76 3203.47C2488.4 3202.43 2335.44 3144.27 2335.44 3144.27L2192.24 3065.07L2266.72 2947.23L2287.12 2915.23L2339.76 2927.07C2339.76 2927.07 2383.36 2951.79 2427.2 2971.47C2471.04 2991.15 2577.52 2995.47 2615.04 3025.63C2652.56 3055.79 2679.92 3088.59 2675.84 3128.11Z" fill="#6B21A8"/>
<path d="M2675.84 3128.11C2673.44 3152.11 2665.04 3174.59 2641.04 3188.75C2647.95 3165.15 2646.54 3139.9 2637.04 3117.23C2621.04 3081.31 2568.96 3049.63 2500.48 3044.35C2432 3039.07 2379.6 3007.07 2352.16 2992.75C2330.72 2981.63 2285.52 2957.31 2266.72 2947.23L2287.12 2915.23L2339.76 2927.07C2339.76 2927.07 2383.36 2951.79 2427.2 2971.47C2471.04 2991.15 2577.52 2995.47 2615.04 3025.63C2652.56 3055.79 2679.92 3088.59 2675.84 3128.11Z" fill="white"/>
<path d="M2224 3087.31C2327.08 3147.23 2441 3186.13 2559.2 3201.79C2585.28 3204.91 2615.6 3205.39 2633.04 3185.79C2637.68 3180.13 2641.13 3173.59 2643.2 3166.57C2645.26 3159.54 2645.88 3152.18 2645.04 3144.91C2641.92 3108.11 2610.96 3078.99 2577.04 3064.35C2543.12 3049.71 2505.76 3046.35 2469.68 3038.27C2433.8 3030.18 2399.11 3017.49 2366.48 3000.51C2340.56 2986.99 2315.52 2970.59 2286.96 2964.51C2258.4 2958.43 2224.4 2965.79 2209.12 2990.75" stroke="#263238" stroke-width="1.10311" stroke-linecap="round" stroke-linejoin="round"/>
<path d="M2623.44 3195.79C2636.84 3189.37 2648.56 3179.91 2657.66 3168.16C2666.76 3156.41 2672.98 3142.69 2675.84 3128.11C2681.04 3093.47 2661.28 3058.59 2633.52 3037.31C2605.76 3016.03 2570.96 3005.95 2536.64 2998.83C2502.32 2991.71 2467.2 2986.91 2434.32 2973.87C2384.16 2954.19 2334.64 2915.47 2282.32 2929.31" stroke="#263238" stroke-width="1.10311" stroke-linecap="round" stroke-linejoin="round"/>
<path d="M2385.6 1847.95L2143.28 1755.79L2140.24 1754.59C2140.24 1754.59 2141.12 1748.19 2141.84 1738.59C2143.36 1719.23 2144.16 1687.71 2135.04 1677.07C2121.52 1661.07 2083.28 1674.51 2045.92 1657.39C2008.56 1640.27 1939.52 1670.91 1939.52 1670.91C1939.52 1670.91 1889.6 1661.71 1867.52 1697.71C1856.32 1726.75 1860.16 1769.71 1860.16 1769.71L1855.6 1771.31C1826.72 1782.11 1669.6 1841.23 1636.4 1864.99C1599.68 1890.99 1559.04 2157.95 1546 2236.35C1532.96 2314.75 1509.76 2385.39 1521.52 2412.35C1533.28 2439.31 1702.08 2569.31 1799.2 2602.83C1896.32 2636.35 2240.72 2626.83 2240.72 2626.83C2240.72 2626.83 2246.32 2625.31 2256.32 2622.11C2314.56 2603.39 2521.2 2526.11 2630.88 2344.67C2631.04 2344.99 2524.8 1996.75 2385.6 1847.95ZM1730.88 2296.99C1713.04 2309.63 1722.88 2358.59 1722.88 2358.59L1692.56 2331.87L1768.72 2144.59L1801.2 2288.59C1801.2 2288.59 1748.72 2284.43 1730.88 2296.99ZM2340.16 2415.95C2331.76 2420.27 2364.16 2330.27 2348.8 2309.87C2333.44 2289.47 2287.12 2291.39 2287.12 2291.39L2291.04 2266.83L2318.48 2126.03L2327.6 2115.23C2327.6 2115.23 2421.84 2276.75 2438.72 2333.71C2438.72 2333.87 2336 2415.95 2340.16 2415.95Z" fill="#6B21A8"/>
<path d="M1928.08 1263.87L1802.96 1396.67C1802.96 1396.67 1785.76 1411.95 1792.56 1450.43C1799.36 1488.91 1815.36 1522.43 1827.44 1524.67C1837 1526.34 1846.69 1527.2 1856.4 1527.23C1856.4 1527.23 1883.2 1585.31 1902.24 1608.11C1902.24 1608.11 1908.8 1697.79 1905.28 1722.67C1905.28 1722.67 1950.24 1761.95 1992.56 1766.91C2034.88 1771.87 2100.24 1707.07 2100.24 1707.07L2116.24 1627.71C2116.24 1627.71 2154.64 1569.47 2157.2 1553.95C2159.76 1538.43 2177.36 1542.43 2186 1534.75C2194.64 1527.07 2214.56 1492.91 2218 1460.59C2221.44 1428.27 2221.52 1391.15 2184 1402.03C2151.44 1393.31 2171.84 1324.51 2171.84 1324.51L2114.64 1274.11L1928.08 1263.87Z" fill="white"/>
<path opacity="0.5" d="M2143.28 1755.79C2141.39 1760.73 2139.23 1765.57 2136.8 1770.27C2116.16 1809.15 2026.24 1883.31 2026.24 1883.31L1999.04 1799.71L1984.16 1883.31C1954.16 1870.19 1862.64 1790.91 1862.64 1790.91C1862.64 1790.91 1859.52 1783.47 1855.76 1771.87L1860.32 1770.27C1860.32 1770.27 1856.48 1726.99 1867.68 1698.27C1889.6 1662.27 1939.68 1671.47 1939.68 1671.47C1939.68 1671.47 2008.72 1640.83 2046.08 1657.95C2083.44 1675.07 2121.68 1661.79 2135.2 1677.63C2148.72 1693.47 2140.4 1754.91 2140.4 1754.91L2143.28 1755.79Z" fill="white"/>
<path opacity="0.2" d="M2385.6 1847.95L2143.28 1755.79L2140.24 1754.59C2140.24 1754.59 2141.12 1748.19 2141.84 1738.59L2136.8 1770.03L2100.96 1818.67C2139.27 1832.77 2176.68 1849.23 2212.96 1867.95C2230.33 1877.25 2244.5 1891.56 2253.63 1909.03C2262.76 1926.49 2266.43 1946.29 2264.16 1965.87L2219.52 2347.87L2201.2 2564.75L2256.48 2622.11C2314.72 2603.39 2521.36 2526.11 2631.04 2344.67C2631.04 2344.99 2524.8 1996.75 2385.6 1847.95ZM2340.16 2415.95C2331.76 2420.27 2364.16 2330.27 2348.8 2309.87C2333.44 2289.47 2287.12 2291.39 2287.12 2291.39L2291.04 2266.83L2318.48 2126.03L2327.6 2115.23C2327.6 2115.23 2421.84 2276.75 2438.72 2333.71C2438.72 2333.87 2336 2415.95 2340.16 2415.95Z" fill="black"/>
<path opacity="0.2" d="M1817.28 2309.87L1779.6 2183.95C1779.6 2183.95 1712 1953.47 1665.68 1896.67L1677.84 2058.75C1677.84 2058.75 1637.84 2252.35 1601.28 2309.87C1564.72 2367.39 1556.56 2381.87 1601.28 2381.87C1646 2381.87 1754.88 2468.59 1754.88 2468.59L1746.48 2396.59L1817.28 2309.87ZM1722.32 2358.59L1692 2331.87L1768.16 2144.59L1800.64 2288.59C1800.64 2288.59 1748.48 2284.67 1730.64 2297.23C1712.8 2309.79 1722.32 2358.59 1722.32 2358.59Z" fill="black"/>
<path d="M1902.24 1608.11C1902.24 1608.11 1909.12 1676.03 1902.24 1707.07" stroke="#263238" stroke-width="1.10311" stroke-linecap="round" stroke-linejoin="round"/>
<path d="M2107.2 1697.95C2107.27 1676.11 2109.8 1654.35 2114.72 1633.07" stroke="#263238" stroke-width="1.10311" stroke-linecap="round" stroke-linejoin="round"/>
<path d="M2125.36 1314.51C2125.36 1314.51 2166.48 1366.11 2164.32 1405.15C2162.16 1444.19 2159.12 1490.43 2160.16 1535.71C2161.2 1580.99 2087.44 1675.87 2049.52 1684.27C2011.6 1692.67 1978.96 1694.83 1954.72 1670.59C1930.48 1646.35 1906.24 1612.67 1874.72 1569.47C1843.2 1526.27 1850.72 1431.47 1850.72 1431.47" stroke="#263238" stroke-width="1.10311" stroke-linecap="round" stroke-linejoin="round"/>
<path d="M2026.32 1467.55C2023.82 1481.72 2022.74 1496.12 2023.12 1510.51C2022.3 1522.64 2026.07 1534.63 2033.68 1544.11C2038.24 1548.75 2044.8 1552.51 2045.68 1558.91C2045.66 1561.79 2044.86 1564.61 2043.37 1567.07C2041.87 1569.54 2039.74 1571.55 2037.2 1572.91C2032.07 1575.5 2027.12 1578.44 2022.4 1581.71" stroke="#263238" stroke-width="1.10311" stroke-linecap="round" stroke-linejoin="round"/>
<path d="M1961.28 1586.67C1961.28 1586.67 1966 1617.31 2007.04 1623.71" stroke="#263238" stroke-width="1.10311" stroke-linecap="round" stroke-linejoin="round"/>
<path d="M1965.52 1490.91C1965.52 1499.79 1961.68 1506.91 1956.96 1506.91C1952.24 1506.91 1948.4 1499.79 1948.4 1490.91C1948.4 1482.03 1952.24 1474.91 1956.96 1474.91C1961.68 1474.91 1965.52 1482.11 1965.52 1490.91Z" fill="#263238"/>
<path d="M2088 1494.75C2088 1503.63 2084.16 1510.75 2079.44 1510.75C2074.72 1510.75 2070.88 1503.55 2070.88 1494.75C2070.88 1485.95 2074.72 1478.75 2079.44 1478.75C2084.16 1478.75 2088 1485.87 2088 1494.75Z" fill="#263238"/>
<path d="M2063.28 1455.95C2063.28 1455.95 2103.28 1415.95 2136.8 1460.59" stroke="#263238" stroke-width="2.20621" stroke-linecap="round" stroke-linejoin="round"/>
<path d="M1979.04 1456.75C1979.04 1456.75 1953.76 1428.43 1913.92 1456.75" stroke="#263238" stroke-width="2.20621" stroke-linecap="round" stroke-linejoin="round"/>
<path d="M1905.28 1645.87C1905.28 1645.87 1929.68 1713.07 1984.16 1732.19C2038.64 1751.31 2110.96 1652.19 2110.96 1652.19L2107.2 1639.31C2107.2 1639.31 2059.76 1700.91 2007.04 1690.43C1954.32 1679.95 1902.24 1608.43 1902.24 1608.43L1905.28 1645.87Z" fill="#263238"/>
<path d="M1856.4 1524.67C1856.4 1524.67 1823.92 1536.11 1815.28 1510.83C1806.64 1485.55 1777.04 1418.91 1802.96 1396.67C1828.88 1374.43 1849.68 1426.03 1849.68 1426.03" stroke="#263238" stroke-width="1.10311" stroke-linecap="round" stroke-linejoin="round"/>
<path d="M2160.08 1538.43C2160.08 1538.43 2190.24 1544.51 2198.88 1519.23C2207.52 1493.95 2237.12 1427.31 2211.2 1405.07C2185.28 1382.83 2164.48 1434.43 2164.48 1434.43" stroke="#263238" stroke-width="1.10311" stroke-linecap="round" stroke-linejoin="round"/>
<path d="M1849.68 1490.91C1860.96 1489.13 1871.15 1483.12 1878.16 1474.11C1882.44 1466.2 1885.16 1457.53 1886.16 1448.59C1889.13 1431.57 1890.63 1414.34 1890.64 1397.07C1890.29 1390.32 1890.91 1383.56 1892.48 1376.99C1894.88 1370.38 1898.58 1364.31 1903.36 1359.15C1914.64 1345.87 1928.32 1334.67 1939.12 1320.91C1944.91 1314.41 1949.31 1306.81 1952.07 1298.56C1954.82 1290.3 1955.86 1281.58 1955.12 1272.91C1979.87 1293.31 2008.79 1308.05 2039.85 1316.08C2070.9 1324.11 2103.34 1325.24 2134.88 1319.39C2192.08 1308.19 2246.88 1258.03 2240.24 1194.99C2238.99 1184.42 2234.45 1174.51 2227.28 1166.64C2220.11 1158.78 2210.65 1153.36 2200.24 1151.15C2172 1144.11 2146.64 1159.15 2121.04 1168.83C2074.4 1186.43 2028.72 1156.19 1981.6 1151.15C1941.6 1146.75 1891.76 1151.79 1870.8 1191.87C1870.8 1191.87 1798.8 1200.35 1766.8 1259.87C1734.8 1319.39 1795.36 1401.71 1795.36 1401.71C1795.36 1401.71 1819.36 1372.27 1850.8 1431.79L1849.68 1490.91Z" fill="#263238"/>
<path d="M2130.32 1299.31C2130.32 1299.31 2111.6 1396.91 2160.48 1444.19C2160.48 1444.19 2171.2 1414.83 2182 1407.63C2189.79 1390.31 2193.08 1371.3 2191.59 1352.37C2190.09 1333.44 2183.85 1315.19 2173.44 1299.31C2137.28 1242.51 2130.32 1299.31 2130.32 1299.31Z" fill="#263238"/>
<path opacity="0.2" d="M2219.44 1188.27C2215.15 1201.58 2207.87 1213.75 2198.17 1223.83C2188.46 1233.9 2176.59 1241.63 2163.44 1246.43C2095.6 1274.11 2029.76 1243.47 1961.76 1237.47C1906.32 1232.51 1845.12 1282.59 1841.2 1339.55" stroke="white" stroke-width="1.10311" stroke-linecap="round" stroke-linejoin="round"/>
<path opacity="0.2" d="M1799.36 1324.51C1800.19 1302.03 1807.4 1280.25 1820.15 1261.72C1832.9 1243.19 1850.66 1228.68 1871.36 1219.87" stroke="white" stroke-width="1.10311" stroke-linecap="round" stroke-linejoin="round"/>
<path d="M1886.56 1697.95C1916.39 1729.04 1952.39 1753.56 1992.24 1769.95C1992.24 1769.95 2073.44 1746.35 2114.72 1689.95" stroke="#263238" stroke-width="1.10311" stroke-linecap="round" stroke-linejoin="round"/>
<path d="M1969.54 1556.05C2005.61 1539.51 2021.43 1496.86 2004.89 1460.8C1988.35 1424.73 1945.7 1408.91 1909.64 1425.45C1873.58 1441.99 1857.75 1484.64 1874.29 1520.7C1890.83 1556.76 1933.48 1572.59 1969.54 1556.05Z" stroke="#263238" stroke-width="1.10311" stroke-linecap="round" stroke-linejoin="round"/>
<path d="M2108.75 1562.37C2148.13 1557.54 2176.14 1521.69 2171.3 1482.31C2166.46 1442.93 2130.62 1414.93 2091.24 1419.76C2051.86 1424.6 2023.86 1460.44 2028.69 1499.82C2033.53 1539.2 2069.37 1567.21 2108.75 1562.37Z" stroke="#263238" stroke-width="1.10311" stroke-linecap="round" stroke-linejoin="round"/>
<path d="M1902.24 1671.15C1894.96 1673.06 1888.14 1676.42 1882.19 1681.02C1876.24 1685.63 1871.28 1691.38 1867.6 1697.95C1854.88 1720.35 1862.56 1790.83 1862.56 1790.83C1862.56 1790.83 1928.24 1855.79 1984.16 1883.23L2000.64 1790.51L2026.24 1883.23C2026.24 1883.23 2112.8 1822.03 2136.8 1770.27C2136.8 1770.27 2144.8 1709.87 2136.8 1690.27C2134.98 1684.82 2131.52 1680.08 2126.89 1676.68C2122.26 1673.29 2116.7 1671.41 2110.96 1671.31" stroke="#263238" stroke-width="1.10311" stroke-linecap="round" stroke-linejoin="round"/>
<path d="M1799.36 2291.47C1799.36 2291.47 1773.68 2119.47 1739.52 2049.31" stroke="#263238" stroke-width="1.10311" stroke-linecap="round" stroke-linejoin="round"/>
<path d="M1665.68 1896.67C1685.57 1924.93 1703.32 1954.64 1718.8 1985.55" stroke="#263238" stroke-width="1.10311" stroke-linecap="round" stroke-linejoin="round"/>
<path d="M2340.16 2025.07C2347.06 1996.31 2356.51 1968.22 2368.4 1941.15" stroke="#263238" stroke-width="1.10311" stroke-linecap="round" stroke-linejoin="round"/>
<path d="M2287.12 2291.47C2287.12 2291.47 2305.6 2173.55 2327.68 2076.43" stroke="#263238" stroke-width="1.10311" stroke-linecap="round" stroke-linejoin="round"/>
<path d="M2318.48 2125.87C2336.34 2102.18 2361.46 2084.99 2390 2076.91" stroke="#263238" stroke-width="1.10311" stroke-linecap="round" stroke-linejoin="round"/>
<path d="M2140.32 1754.59C2140.32 1754.59 2289.36 1814.19 2385.6 1848.03C2385.6 1848.03 2504 1959.31 2630.96 2344.99C2630.96 2344.99 2514.64 2540.67 2293.36 2603.39" stroke="#263238" stroke-width="1.10311" stroke-linecap="round" stroke-linejoin="round"/>
<path d="M2331.76 2422.91L2438.72 2333.87C2438.72 2333.87 2495.28 2290.91 2554.08 2320.27" stroke="#263238" stroke-width="1.10311" stroke-linecap="round" stroke-linejoin="round"/>
<path d="M2327.68 2115.23C2327.68 2115.23 2416.08 2245.87 2438.72 2333.87" stroke="#263238" stroke-width="1.10311" stroke-linecap="round" stroke-linejoin="round"/>
<path d="M1723.52 2363.55L1692.24 2333.87C1692.24 2333.87 1645.84 2325.87 1593.2 2360.99" stroke="#263238" stroke-width="1.10311" stroke-linecap="round" stroke-linejoin="round"/>
<path d="M1692.24 2333.87C1692.24 2333.87 1731.12 2205.87 1769.44 2140.35" stroke="#263238" stroke-width="1.10311" stroke-linecap="round" stroke-linejoin="round"/>
<path d="M1860.32 1770.27C1860.32 1770.27 1645.84 1850.75 1624.8 1874.27C1603.76 1897.79 1523.84 2347.79 1521.68 2399.31C1519.84 2445.39 1686.88 2548.83 1769.68 2592.43" stroke="#263238" stroke-width="1.10311" stroke-linecap="round" stroke-linejoin="round"/>
<path d="M2020.72 1922.35C2020.72 1925.15 2019.89 1927.89 2018.33 1930.21C2016.78 1932.54 2014.57 1934.36 2011.98 1935.43C2009.39 1936.5 2006.54 1936.78 2003.8 1936.24C2001.05 1935.69 1998.53 1934.34 1996.55 1932.36C1994.57 1930.38 1993.22 1927.86 1992.67 1925.11C1992.13 1922.36 1992.41 1919.52 1993.48 1916.93C1994.55 1914.34 1996.36 1912.13 1998.69 1910.57C2001.02 1909.02 2003.76 1908.19 2006.56 1908.19C2008.42 1908.18 2010.27 1908.54 2011.99 1909.24C2013.71 1909.95 2015.28 1910.99 2016.6 1912.31C2017.91 1913.63 2018.96 1915.19 2019.66 1916.92C2020.37 1918.64 2020.73 1920.49 2020.72 1922.35Z" fill="#263238"/>
<path d="M2268.88 2676.11H1780.88C1777.85 2676.11 1774.94 2674.9 1772.79 2672.76C1770.65 2670.61 1769.44 2667.7 1769.44 2664.67C1769.44 2661.63 1770.65 2658.72 1772.79 2656.58C1774.94 2654.43 1777.85 2653.23 1780.88 2653.23H2268.88C2271.91 2653.23 2274.82 2654.43 2276.97 2656.58C2279.12 2658.72 2280.32 2661.63 2280.32 2664.67C2280.32 2667.7 2279.12 2670.61 2276.97 2672.76C2274.82 2674.9 2271.91 2676.11 2268.88 2676.11Z" fill="#263238"/>
<path d="M2286 2637.87L2351.36 2330.67C2352.37 2325.9 2352.31 2320.97 2351.17 2316.24C2350.03 2311.5 2347.85 2307.08 2344.78 2303.3C2341.71 2299.52 2337.84 2296.47 2333.44 2294.38C2329.04 2292.3 2324.23 2291.22 2319.36 2291.23H1748.96C1744.13 2291.23 1739.36 2292.3 1735 2294.37C1730.63 2296.43 1726.78 2299.44 1723.72 2303.18C1720.66 2306.91 1718.47 2311.28 1717.3 2315.96C1716.13 2320.65 1716.01 2325.53 1716.96 2330.27L1775.6 2627.23C1777.04 2634.52 1780.92 2641.11 1786.61 2645.89C1792.3 2650.68 1799.45 2653.38 1806.88 2653.55L2253.2 2663.79C2260.83 2663.96 2268.28 2661.46 2274.26 2656.73C2280.25 2652 2284.4 2645.33 2286 2637.87Z" fill="white" stroke="#263238" stroke-width="1.10311" stroke-linecap="round" stroke-linejoin="round"/>
<path d="M2077.84 2468.51C2077.82 2477.51 2075.14 2486.3 2070.13 2493.78C2065.12 2501.25 2058 2507.07 2049.68 2510.51C2041.37 2513.94 2032.22 2514.83 2023.39 2513.06C2014.57 2511.3 2006.46 2506.96 2000.1 2500.59C1993.75 2494.22 1989.42 2486.11 1987.67 2477.28C1985.92 2468.45 1986.82 2459.3 1990.27 2450.99C1993.72 2442.68 1999.55 2435.57 2007.04 2430.57C2014.52 2425.58 2023.32 2422.91 2032.32 2422.91C2038.3 2422.91 2044.23 2424.09 2049.76 2426.38C2055.29 2428.67 2060.31 2432.03 2064.54 2436.27C2068.76 2440.5 2072.11 2445.53 2074.4 2451.06C2076.68 2456.6 2077.85 2462.52 2077.84 2468.51Z" fill="#263238"/>
<path d="M2167.36 2320.59H2235.12" stroke="#263238" stroke-width="1.10311" stroke-linecap="round" stroke-linejoin="round"/>
<path d="M1843.76 2320.59H2100.96" stroke="#263238" stroke-width="1.10311" stroke-linecap="round" stroke-linejoin="round"/>
<path d="M2287.12 2964.03L2235.12 3100.51C2235.12 3100.51 2102.48 3067.07 1932.64 3032.27C1754.96 2995.87 1569.44 2948.75 1473.2 2779.87C1461.52 2759.31 1453.68 2734.99 1459.2 2711.95C1473.04 2653.63 1548.96 2637.79 1598.96 2631.95C1630.39 2628.55 1661.98 2626.78 1693.6 2626.67C1709.6 2626.67 1762.8 2617.95 1775.68 2627.47C1795.03 2641.59 1815.69 2653.83 1837.36 2664.03C1865.76 2676.11 2280.32 2653.23 2280.32 2653.23C2287.53 2637.5 2291.95 2620.63 2293.36 2603.39C2358.56 2570.27 2509.36 2542.27 2573.36 2554.67C2673.6 2574.11 2732.08 2632.59 2720.96 2693.87C2709.84 2755.15 2488.4 2919.47 2287.12 2964.03Z" fill="#263238"/>
<path d="M2287.12 2964.03C2287.12 2964.03 2160.96 2930.59 2057.92 2860.99C1954.88 2791.39 1874.4 2710.59 1730.8 2727.31" stroke="white" stroke-width="1.10311" stroke-linecap="round" stroke-linejoin="round"/>
<path d="M2034.32 2844.59C2099.44 2825.87 2147.2 2783.71 2199.44 2743.31C2254.54 2699.09 2313.71 2660.19 2376.16 2627.15" stroke="white" stroke-width="1.10311" stroke-linecap="round" stroke-linejoin="round"/>
<path d="M2011.36 1502.27H2030.48" stroke="#263238" stroke-width="1.10311" stroke-linecap="round" stroke-linejoin="round"/>
</svg>
