<?xml version="1.0" encoding="UTF-8" standalone="no"?>
<!-- Created with Inkscape (http://www.inkscape.org/) -->

<svg
   width="1028.3029mm"
   height="987.77789mm"
   viewBox="0 0 1028.3029 987.77789"
   version="1.1"
   id="svg5"
   xml:space="preserve"
   xmlns="http://www.w3.org/2000/svg"
   xmlns:svg="http://www.w3.org/2000/svg"><defs
     id="defs2"><clipPath
       clipPathUnits="userSpaceOnUse"
       id="clipPath29"><path
         d="m 19953.6,4550 c -1690.1,0 -2981.2,236.3 -3496.1,340.9 -1468.6,298.3 -4014.8,815.5 -6304.7,2515.3 30.6,-2.3 61.1,-3.5 91.5,-3.5 175.3,0 347.1,39.7 505.2,123.6 162.7,86.4 294.8,211.2 394,362.2 278,-397.9 709.2,-605 709.2,-605 0,0 74.8,0.1 213.9,0.4 352.4,-209.4 737,-324.5 1121.9,-324.5 195.1,0 390.2,29.6 581.2,91.5 173.4,56.2 334,136 480.3,235.9 2179.8,2.8 5477.5,6.2 8301.3,6.2 1479.9,0 2830.4,-1 3821,-3.4 59.4,-53.6 124.7,-101.2 195.9,-142 180.8,-103.8 380.6,-152.9 585.4,-152.9 312.8,0 637.3,114.7 923,324.4 284.5,208.7 606.7,362.9 947,456.1 310.1,84.8 617.7,221.5 911.4,405.4 -457,-433 -883.2,-738.8 -1233.4,-990.1 C 25720.3,5051.4 22414.4,4550 19953.6,4550 m 11849.3,6148.4 c 105.9,361.7 161.2,723.8 167.6,1073.2 13.9,751.8 328.7,1464.8 853.6,2003.1 67.5,69.3 132.5,143.3 194.4,221.6 -282.6,-1190.2 -692.2,-2306.8 -1215.6,-3297.9 m -7847.9,229.8 c -2564.2,75.2 -5919.5,160.8 -8308.6,174.3 506.8,1298.2 560.5,2916.1 40,4521.4 -523.2,1613.7 -1523.6,2897.4 -2703.6,3649.7 -1055,672.6 -1818.6,1723.5 -2106.7,2939.7 -30.3,127.8 -66.1,256 -107.7,384.1 -514.5,1587.1 -1744.79,2670.7 -2978.27,2752.7 100.05,172.9 203.23,343.2 309.22,510.3 560.23,883.3 3519.45,5785.9 9534.15,6572.1 596.9,78.1 1210.7,117.5 1832.3,117.5 3168.5,0 6554.7,-1023.5 9123.4,-3175.7 336.2,-281.6 654.2,-578.8 953.2,-888.7 -1255.1,-166 -2412.4,-1394.9 -2764.5,-3070.7 -27.7,-131.9 -49.7,-263.3 -66.3,-393.8 -157.3,-1241 -805.6,-2368.1 -1784,-3149.7 -1094.4,-874.3 -1953.6,-2258.3 -2302.6,-3920 -353,-1680 -114.3,-3309.9 552.5,-4556 282.4,-527.9 480.3,-1096.6 562.5,-1689.2 38.4,-276.2 111.4,-538.3 215,-778 m 9469.4,5704.5 c -121.7,220.8 -293.1,403.2 -512,528.9 -207.8,119.2 -438.2,175.6 -676.6,175.6 -136.8,0 -276.3,-18.6 -415.5,-54.6 35,808.7 -64.8,1585.1 -279.7,2288.6 -360.6,1180.1 -230.8,2452 316.2,3557.6 171.4,346.5 305.1,728.4 391,1137.1 2,9.6 4,19.4 6,29 1005.8,-2430.5 1361.1,-5121.4 1170.6,-7662.2 m -26699.42,146.5 c -297.48,193.6 -620.38,299.5 -930.19,299.5 -64.14,0 -127.67,-4.6 -190.36,-13.8 -7.03,972.7 78.49,1950.5 247.57,2911.2 36.64,-64.3 74.55,-127.3 113.67,-188.9 571.41,-899.6 846.11,-1955.8 759.31,-3008"
         id="path27" /></clipPath><linearGradient
       x1="0"
       y1="0"
       x2="1"
       y2="0"
       gradientUnits="userSpaceOnUse"
       gradientTransform="matrix(-24914.7,30942.5,30942.5,24914.7,37097.4,-3714.1)"
       spreadMethod="pad"
       id="linearGradient35"><stop
         style="stop-opacity:1;stop-color:#dae3fe"
         offset="0"
         id="stop31" /><stop
         style="stop-opacity:1;stop-color:#e9effd"
         offset="1"
         id="stop33" /></linearGradient><clipPath
       clipPathUnits="userSpaceOnUse"
       id="clipPath71"><path
         d="m 27931.3,7546.5 c -1992.7,0 -15005,0 -15292.7,0 -311.5,0 -1500.9,-77.6 -1472.6,1253.4 13.6,639.8 354.3,1034 704.6,1283.9 324.6,231.6 713.9,344.4 1112.7,344.4 2040.6,0 12498.4,0 13928.5,0 1304.8,0 1054,1740 1054,1740 L 13120,11803 c 0,0 -2208.9,-1307.7 -2444.5,-2641.5 -55.6,-315.3 -46.5,-605.4 -0.1,-854 134.8,-722.6 766.9,-1253 1502,-1253 h 15753.9 c 140.8,0 254.9,105.2 254.9,246.1 0,140.7 -114.1,245.9 -254.9,245.9 z"
         id="path69" /></clipPath><linearGradient
       x1="0"
       y1="0"
       x2="1"
       y2="0"
       gradientUnits="userSpaceOnUse"
       gradientTransform="matrix(921.55,-13095.7,-13095.7,-921.55,18850.3,16841.8)"
       spreadMethod="pad"
       id="linearGradient77"><stop
         style="stop-opacity:1;stop-color:#09005d"
         offset="0"
         id="stop73" /><stop
         style="stop-opacity:1;stop-color:#1a0f91"
         offset="1"
         id="stop75" /></linearGradient><clipPath
       clipPathUnits="userSpaceOnUse"
       id="clipPath87"><path
         d="M 27031.7,30072.8 H 12784.2 V 10744.5 h 14247.5 c 543.8,0 934.1,505.7 934.1,1049.5 v 17316.6 c 0,543.8 -390.3,962.2 -934.1,962.2 z"
         id="path85" /></clipPath><linearGradient
       x1="0"
       y1="0"
       x2="1"
       y2="0"
       gradientUnits="userSpaceOnUse"
       gradientTransform="matrix(3235.46,-45977.5,-45977.5,-3235.46,18488.9,46749.3)"
       spreadMethod="pad"
       id="linearGradient93"><stop
         style="stop-opacity:1;stop-color:#09005d"
         offset="0"
         id="stop89" /><stop
         style="stop-opacity:1;stop-color:#1a0f91"
         offset="1"
         id="stop91" /></linearGradient><clipPath
       clipPathUnits="userSpaceOnUse"
       id="clipPath103"><path
         d="m 12808.5,30095.2 c 0,0 -2293.9,-457 -2124,-2225 170,-1768.1 -9,-18706.1 -9,-18706.1 0,0 688.7,1645.3 2133,1645.3 0,3653.2 0,19285.8 0,19285.8 z"
         id="path101" /></clipPath><linearGradient
       x1="0"
       y1="0"
       x2="1"
       y2="0"
       gradientUnits="userSpaceOnUse"
       gradientTransform="matrix(2132.99,0,0,-2132.99,10675.5,19629.6)"
       spreadMethod="pad"
       id="linearGradient109"><stop
         style="stop-opacity:1;stop-color:#09005d"
         offset="0"
         id="stop105" /><stop
         style="stop-opacity:1;stop-color:#1a0f91"
         offset="1"
         id="stop107" /></linearGradient><clipPath
       clipPathUnits="userSpaceOnUse"
       id="clipPath139"><path
         d="m 10740.4,17778.4 c -10.4,-19.7 -665,-501.4 -665,-501.4 0,0 144.5,-1034.3 731.6,-1442.8 645.5,-449 1557,369.9 1557,369.9 0,0 725.5,-172.4 1111.3,1337.7 88.5,346.4 -422.4,375.7 -1039,311.9 -795.2,-82.3 -1695.9,-75.3 -1695.9,-75.3 z"
         id="path137" /></clipPath><linearGradient
       x1="0"
       y1="0"
       x2="1"
       y2="0"
       gradientUnits="userSpaceOnUse"
       gradientTransform="matrix(-2684.01,-3814.22,-3814.22,2684.01,14650.9,21309.5)"
       spreadMethod="pad"
       id="linearGradient145"><stop
         style="stop-opacity:1;stop-color:#4f52ff"
         offset="0"
         id="stop141" /><stop
         style="stop-opacity:1;stop-color:#4042e2"
         offset="1"
         id="stop143" /></linearGradient><clipPath
       clipPathUnits="userSpaceOnUse"
       id="clipPath155"><path
         d="m 9516.76,14249.7 c 256.11,176.1 539.24,308.9 839.44,390.6 112.8,30.6 721.6,-146.3 1098,-137.7 516.6,11.9 1042.5,247 1468.3,140.9 423,-105.4 769.2,-243.1 969.2,-385.3 598.3,-425.5 949.6,-1219.1 1163.7,-2005.1 -405.4,-416.2 -915.5,-601.1 -915.5,-601.1 L 14045.6,7831.3 11786.3,6675.4 9207.67,7970 l 92.37,3733.7 c 0,0 -818.85,381.4 -878.93,520.1 -60.09,138.7 373.2,1529.2 1095.65,2025.9 z"
         id="path153" /></clipPath><linearGradient
       x1="0"
       y1="0"
       x2="1"
       y2="0"
       gradientUnits="userSpaceOnUse"
       gradientTransform="matrix(5622.78,5447.07,5447.07,-5622.78,9115.57,8472.1)"
       spreadMethod="pad"
       id="linearGradient161"><stop
         style="stop-opacity:1;stop-color:#ff928e"
         offset="0"
         id="stop157" /><stop
         style="stop-opacity:1;stop-color:#fe7062"
         offset="1"
         id="stop159" /></linearGradient><clipPath
       clipPathUnits="userSpaceOnUse"
       id="clipPath171"><path
         d="m 8459.24,12240.5 c 0,0 -1097.3,-3042.2 1404.96,-4292.5 519.6,69 319.7,931.9 319.7,931.9 0,0 -1087.2,240.5 -760.68,2778.3 -300.63,247.4 -963.98,582.3 -963.98,582.3 z"
         id="path169" /></clipPath><linearGradient
       x1="0"
       y1="0"
       x2="1"
       y2="0"
       gradientUnits="userSpaceOnUse"
       gradientTransform="matrix(4293.21,-10370.6,-10370.6,-4293.21,7898.59,13058.4)"
       spreadMethod="pad"
       id="linearGradient177"><stop
         style="stop-opacity:1;stop-color:#febbba"
         offset="0"
         id="stop173" /><stop
         style="stop-opacity:1;stop-color:#ff928e"
         offset="1"
         id="stop175" /></linearGradient><clipPath
       clipPathUnits="userSpaceOnUse"
       id="clipPath187"><path
         d="m 15002.6,12240.5 c 0,0 755.1,-3175.6 -1404.9,-4292.5 -519.6,69 -319.8,931.9 -319.8,931.9 0,0 876.3,431.5 760.8,2778.3 300.6,247.4 963.9,582.3 963.9,582.3 z"
         id="path185" /></clipPath><linearGradient
       x1="0"
       y1="0"
       x2="1"
       y2="0"
       gradientUnits="userSpaceOnUse"
       gradientTransform="matrix(-4293.21,-10370.6,10370.6,-4293.21,15509.4,13080.7)"
       spreadMethod="pad"
       id="linearGradient193"><stop
         style="stop-opacity:1;stop-color:#febbba"
         offset="0"
         id="stop189" /><stop
         style="stop-opacity:1;stop-color:#ff928e"
         offset="1"
         id="stop191" /></linearGradient><clipPath
       clipPathUnits="userSpaceOnUse"
       id="clipPath203"><path
         d="M 14048.9,7734.3 H 9261.27 c -45.84,0 -83.34,37.5 -83.34,83.3 v 3179.2 c 0,45.8 37.5,83.3 83.34,83.3 h 4787.63 c 45.8,0 83.3,-37.5 83.3,-83.3 V 7817.6 c 0,-45.8 -37.5,-83.3 -83.3,-83.3 z"
         id="path201" /></clipPath><linearGradient
       x1="0"
       y1="0"
       x2="1"
       y2="0"
       gradientUnits="userSpaceOnUse"
       gradientTransform="matrix(-223.356,-9046.05,-9046.05,223.356,11712.2,11720.1)"
       spreadMethod="pad"
       id="linearGradient209"><stop
         style="stop-opacity:1;stop-color:#09005d"
         offset="0"
         id="stop205" /><stop
         style="stop-opacity:1;stop-color:#1a0f91"
         offset="1"
         id="stop207" /></linearGradient><clipPath
       clipPathUnits="userSpaceOnUse"
       id="clipPath219"><path
         d="m 16305.2,6742.4 c -567,130.1 -1877.4,60.2 -1877.4,60.2 l -53.3,-144.4 -88.2,-717.4 c 0,0 1247.9,-225 1863,-224.4 62.8,0.1 120.2,9.5 172.6,25.8 18.8,16.8 37.1,34.3 54.5,53.2 260.9,285 185.6,703.7 -71.2,947 z"
         id="path217" /></clipPath><linearGradient
       x1="0"
       y1="0"
       x2="1"
       y2="0"
       gradientUnits="userSpaceOnUse"
       gradientTransform="matrix(2346.09,-18.0649,-18.0649,-2346.09,14288.9,6279.7)"
       spreadMethod="pad"
       id="linearGradient225"><stop
         style="stop-opacity:1;stop-color:#09005d"
         offset="0"
         id="stop221" /><stop
         style="stop-opacity:1;stop-color:#1a0f91"
         offset="1"
         id="stop223" /></linearGradient><clipPath
       clipPathUnits="userSpaceOnUse"
       id="clipPath235"><path
         d="m 14051.3,6843 221.9,-9.5 c 119.2,-5.1 231.6,-63.2 311.7,-161.2 80.2,-98 121.4,-227.6 114.4,-359.7 -5.6,-105.3 -48.8,-203.8 -120.1,-273.7 -71.3,-69.9 -164.7,-105.4 -259.6,-98.6 l -339.6,24.1 z"
         id="path233" /></clipPath><linearGradient
       x1="0"
       y1="0"
       x2="1"
       y2="0"
       gradientUnits="userSpaceOnUse"
       gradientTransform="matrix(-2476.45,-6707.75,-6707.75,2476.45,15837.4,10509.8)"
       spreadMethod="pad"
       id="linearGradient241"><stop
         style="stop-opacity:1;stop-color:#febbba"
         offset="0"
         id="stop237" /><stop
         style="stop-opacity:1;stop-color:#ff928e"
         offset="1"
         id="stop239" /></linearGradient><clipPath
       clipPathUnits="userSpaceOnUse"
       id="clipPath251"><path
         d="m 6590,6811.4 c 570,112.7 1878.17,2.5 1878.17,2.5 l 49.68,-145.9 70.34,-719.9 c 0,0 -1253.09,-186.5 -1867.98,-167.1 -62.74,2 -119.89,13.2 -171.89,31.1 -18.32,17.4 -36.23,35.4 -53.07,54.9 -253.77,292.9 -167.97,709.1 94.75,944.4 z"
         id="path249" /></clipPath><linearGradient
       x1="0"
       y1="0"
       x2="1"
       y2="0"
       gradientUnits="userSpaceOnUse"
       gradientTransform="matrix(-2346.62,46.9418,-46.9418,-2346.62,8595.06,6291.3)"
       spreadMethod="pad"
       id="linearGradient257"><stop
         style="stop-opacity:1;stop-color:#09005d"
         offset="0"
         id="stop253" /><stop
         style="stop-opacity:1;stop-color:#1a0f91"
         offset="1"
         id="stop255" /></linearGradient><clipPath
       clipPathUnits="userSpaceOnUse"
       id="clipPath267"><path
         d="m 8845.57,6842.8 -222.05,-2.7 c -119.3,-1.4 -233.06,-56 -315.64,-151.5 -82.57,-95.5 -127,-223.9 -123.3,-356.1 2.96,-105.5 43.72,-205.3 113.2,-277.3 69.51,-72 162.02,-110.4 257.09,-106.5 l 340,13.7 z"
         id="path265" /></clipPath><linearGradient
       x1="0"
       y1="0"
       x2="1"
       y2="0"
       gradientUnits="userSpaceOnUse"
       gradientTransform="matrix(-2477.77,-6711.3,-6711.3,2477.77,10875.7,12531.2)"
       spreadMethod="pad"
       id="linearGradient273"><stop
         style="stop-opacity:1;stop-color:#febbba"
         offset="0"
         id="stop269" /><stop
         style="stop-opacity:1;stop-color:#ff928e"
         offset="1"
         id="stop271" /></linearGradient><clipPath
       clipPathUnits="userSpaceOnUse"
       id="clipPath283"><path
         d="m 16463.8,8991.5 c -257.1,591.8 -886,687.9 -1421.3,411.2 -9.3,-12.3 -3399.1,-1749.6 -6388.52,-2511 85.58,-274.4 129.57,-566.3 139.18,-853.2 1.73,-64 0.66,-127 -3.09,-189.2 2292.43,117.7 4780.43,882.2 6918.33,1554.1 663,213.8 1040.4,932.2 755.4,1588.1 z"
         id="path281" /></clipPath><linearGradient
       x1="0"
       y1="0"
       x2="1"
       y2="0"
       gradientUnits="userSpaceOnUse"
       gradientTransform="matrix(-6437.89,-4836.11,-4836.11,6437.89,20467.4,13328.8)"
       spreadMethod="pad"
       id="linearGradient289"><stop
         style="stop-opacity:1;stop-color:#4f52ff"
         offset="0"
         id="stop285" /><stop
         style="stop-opacity:1;stop-color:#4042e2"
         offset="1"
         id="stop287" /></linearGradient><clipPath
       clipPathUnits="userSpaceOnUse"
       id="clipPath299"><path
         d="m 14067.6,5993.5 c -9,330.7 55.3,638.7 192.9,923.7 3.9,13.1 8.6,25.6 12.8,38.5 -170.7,52.9 -391.2,124.5 -680.9,222.8 -2122.8,726.5 -3742.26,1460 -5287.84,2304.4 -600.43,328 -1283.12,108.2 -1475.32,-602.3 -171.59,-634.2 205.2,-1175.7 777.07,-1366 1710.87,-569.3 820.07,-411.2 1378.85,-591 1500.64,-464 3367.94,-886.7 5086.04,-1002.1 -1.3,24 -2.8,48.1 -3.6,72 z"
         id="path297" /></clipPath><linearGradient
       x1="0"
       y1="0"
       x2="1"
       y2="0"
       gradientUnits="userSpaceOnUse"
       gradientTransform="matrix(-1687.29,4302.57,4302.57,1687.29,11065.2,6301.7)"
       spreadMethod="pad"
       id="linearGradient305"><stop
         style="stop-opacity:1;stop-color:#4f52ff"
         offset="0"
         id="stop301" /><stop
         style="stop-opacity:1;stop-color:#4042e2"
         offset="1"
         id="stop303" /></linearGradient><clipPath
       clipPathUnits="userSpaceOnUse"
       id="clipPath315"><path
         d="m 10356.2,14640.3 c 0,0 228.3,-989.4 1336.7,-968.8 1129,20.5 1229.6,972 1229.6,972 l -737.4,157.8 -61.7,821.7 -1109.3,-82.2 -20.5,-780.6 z"
         id="path313" /></clipPath><linearGradient
       x1="0"
       y1="0"
       x2="1"
       y2="0"
       gradientUnits="userSpaceOnUse"
       gradientTransform="matrix(-57.124,4970.11,4970.11,57.124,11667.4,12202.2)"
       spreadMethod="pad"
       id="linearGradient321"><stop
         style="stop-opacity:1;stop-color:#febbba"
         offset="0"
         id="stop317" /><stop
         style="stop-opacity:1;stop-color:#ff928e"
         offset="1"
         id="stop319" /></linearGradient><clipPath
       clipPathUnits="userSpaceOnUse"
       id="clipPath331"><path
         d="m 11169.9,17951.2 c 0,0 -1271.28,-2462.5 236.7,-3060 1063.7,-421.3 1730.6,1635.3 1531.7,2192.4 -307.6,861.3 -510.1,759.1 -510.1,759.1 z"
         id="path329" /></clipPath><linearGradient
       x1="0"
       y1="0"
       x2="1"
       y2="0"
       gradientUnits="userSpaceOnUse"
       gradientTransform="matrix(871.073,4240.04,4240.04,-871.073,11501.8,14961.1)"
       spreadMethod="pad"
       id="linearGradient337"><stop
         style="stop-opacity:1;stop-color:#febbba"
         offset="0"
         id="stop333" /><stop
         style="stop-opacity:1;stop-color:#ff928e"
         offset="1"
         id="stop335" /></linearGradient><clipPath
       clipPathUnits="userSpaceOnUse"
       id="clipPath347"><path
         d="m 13244.2,18175.2 c 628,-172.6 91.3,-1534.6 -854.2,-1212.5 -945.6,322.1 -1317.1,317.3 -1464.5,57.7 -147.3,-259.6 -179,-1181.6 -498.6,-725.9 -350.5,499.6 -545.96,1502.5 -116.2,1825.8 384,288.9 473.7,736.8 934.3,721.3 611.4,-20.6 1084.3,250.4 1360.3,55 316.9,-224.5 176.8,-594.4 638.9,-721.4 z"
         id="path345" /></clipPath><linearGradient
       x1="0"
       y1="0"
       x2="1"
       y2="0"
       gradientUnits="userSpaceOnUse"
       gradientTransform="matrix(-5429.25,-3847.91,-3847.91,5429.25,14799.1,19874.2)"
       spreadMethod="pad"
       id="linearGradient353"><stop
         style="stop-opacity:1;stop-color:#4f52ff"
         offset="0"
         id="stop349" /><stop
         style="stop-opacity:1;stop-color:#4042e2"
         offset="1"
         id="stop351" /></linearGradient><clipPath
       clipPathUnits="userSpaceOnUse"
       id="clipPath363"><path
         d="m 10867.4,16808.7 c 0,0 -271.1,291.7 -314.5,-59.9 -43.4,-351.6 95.9,-804.4 259.1,-556.2 163.3,248.2 55.4,616.1 55.4,616.1 z"
         id="path361" /></clipPath><linearGradient
       x1="0"
       y1="0"
       x2="1"
       y2="0"
       gradientUnits="userSpaceOnUse"
       gradientTransform="matrix(-624.347,6754.19,6754.19,624.347,10924.5,14397.9)"
       spreadMethod="pad"
       id="linearGradient369"><stop
         style="stop-opacity:1;stop-color:#febbba"
         offset="0"
         id="stop365" /><stop
         style="stop-opacity:1;stop-color:#ff928e"
         offset="1"
         id="stop367" /></linearGradient><clipPath
       clipPathUnits="userSpaceOnUse"
       id="clipPath379"><path
         d="m 11947.3,10174 c 26.2,-177.5 -68.8,-338.6 -246.3,-364.9 -177.6,-26.2 -342.7,96.4 -369,273.9 -26.3,177.5 55,353.8 232.5,380 177.5,26.3 356.5,-111.5 382.8,-289 z"
         id="path377" /></clipPath><linearGradient
       x1="0"
       y1="0"
       x2="1"
       y2="0"
       gradientUnits="userSpaceOnUse"
       gradientTransform="matrix(-144.276,-6904.34,-6904.34,144.276,11687,12409.7)"
       spreadMethod="pad"
       id="linearGradient385"><stop
         style="stop-opacity:1;stop-color:#53d8ff"
         offset="0"
         id="stop381" /><stop
         style="stop-opacity:1;stop-color:#3840f7"
         offset="1"
         id="stop383" /></linearGradient></defs><g
     id="g19"
     transform="matrix(0.03527778,0,0,-0.03527778,-158.54926,1148.2917)"><g
       id="g23"><g
         id="g25"
         clip-path="url(#clipPath29)"><path
           d="m 19953.6,4550 c -1690.1,0 -2981.2,236.3 -3496.1,340.9 -1468.6,298.3 -4014.8,815.5 -6304.7,2515.3 30.6,-2.3 61.1,-3.5 91.5,-3.5 175.3,0 347.1,39.7 505.2,123.6 162.7,86.4 294.8,211.2 394,362.2 278,-397.9 709.2,-605 709.2,-605 0,0 74.8,0.1 213.9,0.4 352.4,-209.4 737,-324.5 1121.9,-324.5 195.1,0 390.2,29.6 581.2,91.5 173.4,56.2 334,136 480.3,235.9 2179.8,2.8 5477.5,6.2 8301.3,6.2 1479.9,0 2830.4,-1 3821,-3.4 59.4,-53.6 124.7,-101.2 195.9,-142 180.8,-103.8 380.6,-152.9 585.4,-152.9 312.8,0 637.3,114.7 923,324.4 284.5,208.7 606.7,362.9 947,456.1 310.1,84.8 617.7,221.5 911.4,405.4 -457,-433 -883.2,-738.8 -1233.4,-990.1 C 25720.3,5051.4 22414.4,4550 19953.6,4550 m 11849.3,6148.4 c 105.9,361.7 161.2,723.8 167.6,1073.2 13.9,751.8 328.7,1464.8 853.6,2003.1 67.5,69.3 132.5,143.3 194.4,221.6 -282.6,-1190.2 -692.2,-2306.8 -1215.6,-3297.9 m -7847.9,229.8 c -2564.2,75.2 -5919.5,160.8 -8308.6,174.3 506.8,1298.2 560.5,2916.1 40,4521.4 -523.2,1613.7 -1523.6,2897.4 -2703.6,3649.7 -1055,672.6 -1818.6,1723.5 -2106.7,2939.7 -30.3,127.8 -66.1,256 -107.7,384.1 -514.5,1587.1 -1744.79,2670.7 -2978.27,2752.7 100.05,172.9 203.23,343.2 309.22,510.3 560.23,883.3 3519.45,5785.9 9534.15,6572.1 596.9,78.1 1210.7,117.5 1832.3,117.5 3168.5,0 6554.7,-1023.5 9123.4,-3175.7 336.2,-281.6 654.2,-578.8 953.2,-888.7 -1255.1,-166 -2412.4,-1394.9 -2764.5,-3070.7 -27.7,-131.9 -49.7,-263.3 -66.3,-393.8 -157.3,-1241 -805.6,-2368.1 -1784,-3149.7 -1094.4,-874.3 -1953.6,-2258.3 -2302.6,-3920 -353,-1680 -114.3,-3309.9 552.5,-4556 282.4,-527.9 480.3,-1096.6 562.5,-1689.2 38.4,-276.2 111.4,-538.3 215,-778 m 9469.4,5704.5 c -121.7,220.8 -293.1,403.2 -512,528.9 -207.8,119.2 -438.2,175.6 -676.6,175.6 -136.8,0 -276.3,-18.6 -415.5,-54.6 35,808.7 -64.8,1585.1 -279.7,2288.6 -360.6,1180.1 -230.8,2452 316.2,3557.6 171.4,346.5 305.1,728.4 391,1137.1 2,9.6 4,19.4 6,29 1005.8,-2430.5 1361.1,-5121.4 1170.6,-7662.2 m -26699.42,146.5 c -297.48,193.6 -620.38,299.5 -930.19,299.5 -64.14,0 -127.67,-4.6 -190.36,-13.8 -7.03,972.7 78.49,1950.5 247.57,2911.2 36.64,-64.3 74.55,-127.3 113.67,-188.9 571.41,-899.6 846.11,-1955.8 759.31,-3008"
           style="fill:url(#linearGradient35);fill-opacity:1;fill-rule:nonzero;stroke:none"
           id="path37" /></g></g><path
       d="m 15686.4,15623.9 c -523.2,1613.7 -1523.6,2897.4 -2703.6,3649.7 -1055,672.6 -1818.6,1723.5 -2106.7,2939.7 -30.3,127.8 -66.1,256 -107.7,384.1 -629.2,1940.7 -2328.33,3128.5 -3795.17,2652.9 -1466.84,-475.6 -2145.87,-2434.4 -1516.66,-4375.1 128.66,-396.8 302.07,-762.1 509.1,-1088 660.73,-1040.3 924.73,-2290 691.85,-3500.7 -208.11,-1081.9 -141.93,-2298.9 250.32,-3508.7 584.98,-1804.4 1766.67,-3196.3 3129.06,-3894 515.3,-263.9 980.7,-619.7 1367,-1050.3 642,-715.6 1542.3,-1049.6 2365.8,-782.6 888.4,288 1438.7,1194.9 1472,2250.5 18.8,597.4 155,1183.4 379.5,1737.8 530.1,1308.7 594.2,2953.2 65.2,4584.7"
       style="fill:#91b3fa;fill-opacity:1;fill-rule:nonzero;stroke:none"
       id="path39" /><path
       d="m 8156.22,23352.3 c 607.46,-1220.5 1175.22,-2459.5 1730.03,-3704.5 138.85,-311.1 272.65,-624.5 407.45,-937.4 l 202.2,-469.5 198.2,-471.1 c 131,-314.6 266.3,-627.4 393.7,-943.5 l 382.2,-948.2 c 246.7,-635.3 498.8,-1268.6 733.8,-1908.6 117.9,-319.8 242,-637.2 353.4,-959.4 l 338.6,-964.8 c 438.5,-1291 844.7,-2593.6 1184.2,-3914.1 l -56.8,-15.2 -291.6,978.3 -72.4,244.7 -78.4,242.9 -157.9,485.4 -156.9,485.5 c -52,162 -110,322 -164.7,483.1 -111.6,321.4 -220.6,643.7 -334.3,964.4 -463,1279.8 -942.9,2553.5 -1449.1,3817.2 -257.9,629.9 -510.4,1261.9 -772.8,1890.1 l -195.4,471.6 -199.4,470 c -132.7,313.4 -265.48,626.8 -401.39,938.9 -266.49,626.4 -537.46,1251 -813.55,1873.4 -272.81,623.7 -551.57,1245.1 -832.14,1865.3 l 53,25.5"
       style="fill:#bdd0fb;fill-opacity:1;fill-rule:nonzero;stroke:none"
       id="path41" /><path
       d="m 6811.91,19492.9 c -1.3,0 -2.59,0 -3.88,0.1 -14.25,1.2 -27.91,8.4 -36.73,21 -1056.41,1511 -1042.95,2734.1 -845.67,3494 214.34,825.6 673.49,1285.5 692.93,1304.7 9.63,9.5 22.17,14.3 34.71,14.3 12.78,0 25.55,-4.9 35.26,-14.8 19.2,-19.4 19,-50.7 -0.43,-69.9 -4.59,-4.6 -461.45,-463.3 -667.94,-1264.3 -190.52,-738.8 -200.77,-1929.7 832.27,-3407.2 15.66,-22.5 10.2,-53.3 -12.19,-69 -8.64,-6 -18.54,-8.9 -28.33,-8.9"
       style="fill:#a7c2fb;fill-opacity:1;fill-rule:nonzero;stroke:none"
       id="path43" /><path
       d="m 10967.9,12455.7 c -447.1,842.1 -1125.49,1455.3 -1851.03,1757.1 -648.6,269.8 -1173.39,777.1 -1451.7,1422.1 -29.25,67.8 -61.61,135.3 -97.11,202.1 -537.74,1012.8 -1592.67,1505.1 -2356.25,1099.7 -763.58,-405.5 -946.66,-1555.2 -408.91,-2567.9 109.95,-207.1 241.54,-392.4 387.84,-552.6 466.89,-511.5 735.19,-1177.4 725.23,-1869.8 -8.92,-618.8 146.93,-1285.8 482.14,-1917.1 499.96,-941.6 1289.08,-1597.1 2109.94,-1851 310.5,-96 602.44,-247.7 858.01,-448.5 424.69,-333.6 954.74,-431.1 1383.44,-203.5 462.4,245.6 677.5,800.7 592.4,1388 -48.1,332.4 -30.3,669.8 39.3,998.3 164.6,775.6 38.8,1691.7 -413.3,2543.1"
       style="fill:#bdd0fb;fill-opacity:1;fill-rule:nonzero;stroke:none"
       id="path45" /><path
       d="m 10785.1,8140.2 -256.9,513.1 -64,128.3 -67.1,126.8 -134.8,253.2 -134.2,253.5 c -44.6,84.5 -92.4,167.4 -138.37,251.3 -93.14,167 -184.94,334.7 -279.16,501.1 -381.16,663.2 -771.1,1321.4 -1174.53,1971.5 -204.2,323.5 -405.61,648.7 -612.07,970.8 l -154.17,242 -156.19,240.7 c -104.04,160.5 -208.08,321.1 -313.74,480.5 -208.58,320.8 -419.48,640.1 -632.95,957.7 -211.84,318.6 -426.7,635.4 -642.46,951.3 l 26.78,19.3 c 455.15,-616.4 890.18,-1246.9 1318.64,-1881.9 107.18,-158.7 211.81,-319.1 316.95,-479.1 l 157.67,-240.2 155.68,-241.4 c 103.16,-161.4 208.54,-321.3 309.88,-483.8 l 304.05,-487.6 c 198.55,-327.6 399.87,-653.5 592.34,-984.8 96.46,-165.5 196.14,-329.1 289.25,-496.6 l 281.59,-501 C 10146,9533.2 10498,8851.9 10815,8154.1 l -29.9,-13.9"
       style="fill:#e3ebfd;fill-opacity:1;fill-rule:nonzero;stroke:none"
       id="path47" /><path
       d="m 5896.66,13784.3 c -7.07,0 -14.16,2.5 -19.83,7.6 -820.62,739.3 -977.9,1455.1 -965.34,1925.3 13.63,510.8 219.54,841.2 228.29,855 5.64,9 15.23,13.8 25.04,13.8 5.44,0 10.93,-1.5 15.87,-4.6 13.84,-8.7 17.95,-27 9.2,-40.9 -2.06,-3.2 -206.8,-332.7 -219.2,-828.1 -11.44,-456.9 143.37,-1153.4 945.82,-1876.4 12.18,-11 13.17,-29.7 2.2,-41.9 -4.79,-5.3 -11.06,-8.5 -17.61,-9.5 -1.47,-0.2 -2.95,-0.3 -4.44,-0.3"
       style="fill:#dee8fd;fill-opacity:1;fill-rule:nonzero;stroke:none"
       id="path49" /><path
       d="m 22625,17951.4 c 349,1661.7 1208.2,3045.7 2302.6,3920 978.4,781.6 1626.7,1908.7 1784,3149.7 16.6,130.5 38.6,261.9 66.3,393.8 419.8,1998.4 1984.6,3361.3 3495.1,3044 1510.4,-317.4 2394.6,-2194.6 1974.8,-4193 -85.9,-408.7 -219.6,-790.6 -391,-1137.1 -547,-1105.6 -676.8,-2377.5 -316.2,-3557.6 322.2,-1054.7 385.7,-2273 124,-3518.7 -390.3,-1858.1 -1418.3,-3369.1 -2700,-4208.4 -484.8,-317.4 -910.2,-721 -1248.9,-1190.7 C 27152.9,9873 26292.4,9444.8 25444.4,9623 c -914.8,192.1 -1559,1036.1 -1704.4,2083.2 -82.2,592.6 -280.1,1161.3 -562.5,1689.2 -666.8,1246.1 -905.5,2876 -552.5,4556"
       style="fill:#91b3fa;fill-opacity:1;fill-rule:nonzero;stroke:none"
       id="path51" /><path
       d="m 29297.5,26444 c -474.8,-1279.3 -908.1,-2572.8 -1327.9,-3870.8 -105,-324.5 -204.9,-650.6 -305.8,-976.4 l -151.3,-488.7 -147.2,-490 c -96.9,-327 -198.2,-652.7 -291.4,-980.9 l -279.6,-984.3 c -177.9,-658.6 -361.5,-1315.7 -527.2,-1977.6 -83.4,-330.8 -173.1,-659.9 -249.7,-992.5 l -234.4,-996.2 c -299.1,-1331.5 -564.9,-2671.1 -762.3,-4021.5 l 58.1,-9.1 186.2,1004.7 46,251.2 52.2,250.1 105.5,499.9 104.5,499.9 c 34.5,166.7 75.3,332.2 112.6,498.3 76.9,331.8 151.1,664.1 230.1,995.4 324.7,1323 666.9,2641.7 1036.3,3953.2 189.7,654.4 373.8,1310.3 568,1963.3 l 144.4,490.2 148.4,489 c 98.8,326 197.6,652 299.7,977.1 198.6,651.8 401.9,1302.2 610.4,1951 205.2,649.8 416.6,1297.9 629.8,1945 l -55.4,19.7"
       style="fill:#bdd0fb;fill-opacity:1;fill-rule:nonzero;stroke:none"
       id="path53" /><path
       d="m 31049.7,22746.5 c 14.1,2.6 26.9,11.3 34.4,24.8 890.6,1616.1 747.2,2832 470,3567.4 -301.1,798.8 -807,1207.7 -828.4,1224.7 -21.4,17.1 -52.5,13.5 -69.6,-7.9 -17,-21.4 -13.5,-52.5 7.9,-69.6 5,-4 508.5,-412 799.2,-1187.2 268.2,-715 405.1,-1899.1 -465.9,-3479.6 -13.2,-24 -4.5,-54.1 19.4,-67.3 10.5,-5.8 22.1,-7.4 33,-5.3"
       style="fill:#bdd0fb;fill-opacity:1;fill-rule:nonzero;stroke:none"
       id="path55" /><path
       d="m 26506.7,12504.3 c 515.2,897.8 1273.2,1539.1 2071.2,1840.7 713.4,269.6 1301,801.5 1625.9,1491.4 34.2,72.5 71.7,144.6 112.6,215.9 619.6,1079.8 1781.9,1576.4 2596,1109.3 814.1,-467.2 971.8,-1721.2 352.2,-2801 -126.7,-220.8 -276,-417.2 -440.5,-585.9 -524.9,-538.3 -839.7,-1251.3 -853.6,-2003.1 -12.3,-671.8 -205.2,-1389.9 -591.5,-2063.1 -576,-1003.9 -1455.6,-1687.1 -2355.4,-1933.3 -340.3,-93.2 -662.5,-247.4 -947,-456.1 -472.7,-346.9 -1051.3,-433.8 -1508.4,-171.5 -493.1,282.9 -706.7,892.9 -593.5,1527.2 64.1,358.9 56.9,725.7 -7.1,1084.7 -150.8,847.4 18.3,1837 539.1,2744.8"
       style="fill:#bdd0fb;fill-opacity:1;fill-rule:nonzero;stroke:none"
       id="path57" /><path
       d="m 27512.8,9516 c 5.8,62.6 11.9,124.1 18.3,184.3 62.1,106.7 124.5,213 187.4,319.2 l 323.4,533.6 c 107,178.4 221,352.4 331.6,528.5 220.6,352.7 450.7,699.2 677.8,1047.6 l 347.3,518.2 c 115.8,172.8 235.8,342.6 353.5,514 l 177.5,256.4 179.7,255 c 119.8,169.9 239,340.2 361,508.6 487.5,673.8 982,1342.4 1497.9,1995 l 28.4,-21.8 c -245.4,-335.1 -489.9,-671.2 -731.1,-1009.4 -242.9,-337 -483.1,-676 -720.9,-1016.6 -120.3,-169.3 -239,-339.8 -357.6,-510.3 l -178,-255.6 -175.9,-257.1 c -235.5,-342.1 -465.7,-687.9 -698.8,-1031.6 -460.9,-691.1 -907.5,-1391.4 -1344.7,-2097.5 -93.3,-152.8 -184.7,-306.9 -276.8,-460.5"
       style="fill:#e3ebfd;fill-opacity:1;fill-rule:nonzero;stroke:none"
       id="path59" /><path
       d="m 32058,13765.3 c -1.9,0 -3.9,0.2 -5.9,0.5 -7,1.3 -13.7,5 -18.7,10.9 -11.5,13.6 -9.8,33.9 3.8,45.4 896.6,755.9 1089.3,1506.2 1093.2,2002.4 4.2,538 -206.2,902.8 -208.3,906.4 -9,15.3 -3.9,35.1 11.4,44.1 5.1,3 10.8,4.4 16.3,4.4 11,0 21.8,-5.6 27.7,-15.8 9.1,-15.3 220.7,-381.2 217.3,-936 -3.1,-510.7 -199.3,-1281.7 -1116.1,-2054.7 -6,-5.1 -13.4,-7.6 -20.7,-7.6"
       style="fill:#dee8fd;fill-opacity:1;fill-rule:nonzero;stroke:none"
       id="path61" /><path
       d="m 10918.2,8685.4 c 0,0 -318.6,2208.9 2166.4,2378.8 2485.1,170 14613.1,-254.8 14613.1,-254.8 0,0 -509.8,-2463.9 0,-3525.9 -2336.4,21.3 -15845,0 -15845,0 0,0 -1013.8,486.8 -934.5,1401.9"
       style="fill:#91b3fa;fill-opacity:1;fill-rule:nonzero;stroke:none"
       id="path63" /><g
       id="g65"><g
         id="g67"
         clip-path="url(#clipPath71)"><path
           d="m 27931.3,7546.5 c -1992.7,0 -15005,0 -15292.7,0 -311.5,0 -1500.9,-77.6 -1472.6,1253.4 13.6,639.8 354.3,1034 704.6,1283.9 324.6,231.6 713.9,344.4 1112.7,344.4 2040.6,0 12498.4,0 13928.5,0 1304.8,0 1054,1740 1054,1740 L 13120,11803 c 0,0 -2208.9,-1307.7 -2444.5,-2641.5 -55.6,-315.3 -46.5,-605.4 -0.1,-854 134.8,-722.6 766.9,-1253 1502,-1253 h 15753.9 c 140.8,0 254.9,105.2 254.9,246.1 0,140.7 -114.1,245.9 -254.9,245.9"
           style="fill:url(#linearGradient77);fill-opacity:1;fill-rule:nonzero;stroke:none"
           id="path79" /></g></g><g
       id="g81"><g
         id="g83"
         clip-path="url(#clipPath87)"><path
           d="M 27031.7,30072.8 H 12784.2 V 10744.5 h 14247.5 c 543.8,0 934.1,505.7 934.1,1049.5 v 17316.6 c 0,543.8 -390.3,962.2 -934.1,962.2"
           style="fill:url(#linearGradient93);fill-opacity:1;fill-rule:nonzero;stroke:none"
           id="path95" /></g></g><g
       id="g97"><g
         id="g99"
         clip-path="url(#clipPath103)"><path
           d="m 12808.5,30095.2 c 0,0 -2293.9,-457 -2124,-2225 170,-1768.1 -9,-18706.1 -9,-18706.1 0,0 688.7,1645.3 2133,1645.3 0,3653.2 0,19285.8 0,19285.8"
           style="fill:url(#linearGradient109);fill-opacity:1;fill-rule:nonzero;stroke:none"
           id="path111" /></g></g><path
       d="M 26141.6,10076.8 H 15030 c -17.6,0 -31.8,14.2 -31.8,31.8 v 41.7 c 0,17.6 14.2,31.9 31.8,31.9 h 11111.6 c 17.6,0 31.9,-14.3 31.9,-31.9 v -41.7 c 0,-17.6 -14.3,-31.8 -31.9,-31.8"
       style="fill:#d3e1fd;fill-opacity:1;fill-rule:nonzero;stroke:none"
       id="path113" /><path
       d="M 26369,8952.2 H 13438.9 c -20.5,0 -92.4,44 -92.4,61.6 v 47.1 c 0,5.2 6.3,7.1 15.7,7.1 22.4,0 62.3,-10.4 76.7,-10.4 H 26369 c 14.4,0 33.5,10.4 43.6,10.4 4.2,0 6.9,-1.9 6.9,-7.1 v -47.1 c 0,-17.6 -30.1,-61.6 -50.5,-61.6"
       style="fill:#d3e1fd;fill-opacity:1;fill-rule:nonzero;stroke:none"
       id="path115" /><path
       d="m 26636.9,7968.2 h -8131 c -35.2,0 -63.8,28.5 -63.8,63.7 v 13.2 c 0,35.2 28.6,63.7 63.8,63.7 h 8131 c 35.2,0 63.7,-28.5 63.7,-63.7 v -13.2 c 0,-35.2 -28.5,-63.7 -63.7,-63.7"
       style="fill:#d3e1fd;fill-opacity:1;fill-rule:nonzero;stroke:none"
       id="path117" /><path
       d="m 13311.3,12870.9 c -27.8,0 -35.1,22.5 -35.1,50.3 v 7101.3 c 0,27.8 7.3,50.4 35.1,50.4 27.8,0 35.2,-22.6 35.2,-50.4 v -7101.3 c 0,-27.8 -7.4,-50.3 -35.2,-50.3"
       style="fill:#91b3fa;fill-opacity:1;fill-rule:nonzero;stroke:none"
       id="path119" /><path
       d="m 13311.3,21080.1 c -27.8,0 -35.1,22.6 -35.1,50.4 v 3424.7 c 0,27.8 7.3,50.4 35.1,50.4 27.8,0 35.2,-22.6 35.2,-50.4 v -3424.7 c 0,-27.8 -7.4,-50.4 -35.2,-50.4"
       style="fill:#91b3fa;fill-opacity:1;fill-rule:nonzero;stroke:none"
       id="path121" /><path
       d="m 13311.3,27526.7 c -27.8,0 -35.1,22.5 -35.1,50.3 v 1913.8 c 0,27.9 7.3,50.4 35.1,50.4 27.8,0 35.2,-22.5 35.2,-50.4 V 27577 c 0,-27.8 -7.4,-50.3 -35.2,-50.3"
       style="fill:#91b3fa;fill-opacity:1;fill-rule:nonzero;stroke:none"
       id="path123" /><path
       d="m 19827.6,23849.8 c -665.8,17.4 -1135.6,193.2 -1414.1,526.7 -277.3,331.9 -415.5,738.4 -415.5,1220.6 0,482 150.3,878.9 452.6,1191.8 303.4,314 767.5,471.7 1396,471.8 634.3,0 1120.5,-145.1 1455.5,-435.8 336.4,-292.5 505.4,-709.1 505.4,-1248.9 0,-539.9 -162.6,-968 -486,-1282.9 -322.2,-313.7 -821.5,-460.8 -1493.9,-443.3"
       style="fill:#ffffff;fill-opacity:1;fill-rule:nonzero;stroke:none"
       id="path125" /><path
       d="m 21632.1,14005.1 h -3477.6 v 8639.2 h 3477.6 v -8639.2"
       style="fill:#ffffff;fill-opacity:1;fill-rule:nonzero;stroke:none"
       id="path127" /><path
       d="m 22125.3,14005.1 h -5342.1 c -10.1,0 -18.3,8.2 -18.3,18.3 v 358.6 c 0,14.1 11.4,25.4 25.4,25.4 h 5331.6 c 10.6,0 19.2,-8.5 19.2,-19.1 v -367.4 c 0,-8.7 -7.1,-15.8 -15.8,-15.8"
       style="fill:#ffffff;fill-opacity:1;fill-rule:nonzero;stroke:none"
       id="path129" /><path
       d="M 21632.1,22242 H 16277 c -11.6,0 -21.1,9.5 -21.1,21.1 v 364.1 c 0,9.5 7.7,17.1 17.2,17.1 h 5341.4 c 9.7,0 17.6,-7.9 17.6,-17.6 V 22242"
       style="fill:#ffffff;fill-opacity:1;fill-rule:nonzero;stroke:none"
       id="path131" /><g
       id="g133"><g
         id="g135"
         clip-path="url(#clipPath139)"><path
           d="m 10740.4,17778.4 c -10.4,-19.7 -665,-501.4 -665,-501.4 0,0 144.5,-1034.3 731.6,-1442.8 645.5,-449 1557,369.9 1557,369.9 0,0 725.5,-172.4 1111.3,1337.7 88.5,346.4 -422.4,375.7 -1039,311.9 -795.2,-82.3 -1695.9,-75.3 -1695.9,-75.3"
           style="fill:url(#linearGradient145);fill-opacity:1;fill-rule:nonzero;stroke:none"
           id="path147" /></g></g><g
       id="g149"><g
         id="g151"
         clip-path="url(#clipPath155)"><path
           d="m 9516.76,14249.7 c 256.11,176.1 539.24,308.9 839.44,390.6 112.8,30.6 721.6,-146.3 1098,-137.7 516.6,11.9 1042.5,247 1468.3,140.9 423,-105.4 769.2,-243.1 969.2,-385.3 598.3,-425.5 949.6,-1219.1 1163.7,-2005.1 -405.4,-416.2 -915.5,-601.1 -915.5,-601.1 L 14045.6,7831.3 11786.3,6675.4 9207.67,7970 l 92.37,3733.7 c 0,0 -818.85,381.4 -878.93,520.1 -60.09,138.7 373.2,1529.2 1095.65,2025.9"
           style="fill:url(#linearGradient161);fill-opacity:1;fill-rule:nonzero;stroke:none"
           id="path163" /></g></g><g
       id="g165"><g
         id="g167"
         clip-path="url(#clipPath171)"><path
           d="m 8459.24,12240.5 c 0,0 -1097.3,-3042.2 1404.96,-4292.5 519.6,69 319.7,931.9 319.7,931.9 0,0 -1087.2,240.5 -760.68,2778.3 -300.63,247.4 -963.98,582.3 -963.98,582.3"
           style="fill:url(#linearGradient177);fill-opacity:1;fill-rule:nonzero;stroke:none"
           id="path179" /></g></g><g
       id="g181"><g
         id="g183"
         clip-path="url(#clipPath187)"><path
           d="m 15002.6,12240.5 c 0,0 755.1,-3175.6 -1404.9,-4292.5 -519.6,69 -319.8,931.9 -319.8,931.9 0,0 876.3,431.5 760.8,2778.3 300.6,247.4 963.9,582.3 963.9,582.3"
           style="fill:url(#linearGradient193);fill-opacity:1;fill-rule:nonzero;stroke:none"
           id="path195" /></g></g><g
       id="g197"><g
         id="g199"
         clip-path="url(#clipPath203)"><path
           d="M 14048.9,7734.3 H 9261.27 c -45.84,0 -83.34,37.5 -83.34,83.3 v 3179.2 c 0,45.8 37.5,83.3 83.34,83.3 h 4787.63 c 45.8,0 83.3,-37.5 83.3,-83.3 V 7817.6 c 0,-45.8 -37.5,-83.3 -83.3,-83.3"
           style="fill:url(#linearGradient209);fill-opacity:1;fill-rule:nonzero;stroke:none"
           id="path211" /></g></g><g
       id="g213"><g
         id="g215"
         clip-path="url(#clipPath219)"><path
           d="m 16305.2,6742.4 c -567,130.1 -1877.4,60.2 -1877.4,60.2 l -53.3,-144.4 -88.2,-717.4 c 0,0 1247.9,-225 1863,-224.4 62.8,0.1 120.2,9.5 172.6,25.8 18.8,16.8 37.1,34.3 54.5,53.2 260.9,285 185.6,703.7 -71.2,947"
           style="fill:url(#linearGradient225);fill-opacity:1;fill-rule:nonzero;stroke:none"
           id="path227" /></g></g><g
       id="g229"><g
         id="g231"
         clip-path="url(#clipPath235)"><path
           d="m 14051.3,6843 221.9,-9.5 c 119.2,-5.1 231.6,-63.2 311.7,-161.2 80.2,-98 121.4,-227.6 114.4,-359.7 -5.6,-105.3 -48.8,-203.8 -120.1,-273.7 -71.3,-69.9 -164.7,-105.4 -259.6,-98.6 l -339.6,24.1 71.3,878.6"
           style="fill:url(#linearGradient241);fill-opacity:1;fill-rule:nonzero;stroke:none"
           id="path243" /></g></g><g
       id="g245"><g
         id="g247"
         clip-path="url(#clipPath251)"><path
           d="m 6590,6811.4 c 570,112.7 1878.17,2.5 1878.17,2.5 l 49.68,-145.9 70.34,-719.9 c 0,0 -1253.09,-186.5 -1867.98,-167.1 -62.74,2 -119.89,13.2 -171.89,31.1 -18.32,17.4 -36.23,35.4 -53.07,54.9 -253.77,292.9 -167.97,709.1 94.75,944.4"
           style="fill:url(#linearGradient257);fill-opacity:1;fill-rule:nonzero;stroke:none"
           id="path259" /></g></g><g
       id="g261"><g
         id="g263"
         clip-path="url(#clipPath267)"><path
           d="m 8845.57,6842.8 -222.05,-2.7 c -119.3,-1.4 -233.06,-56 -315.64,-151.5 -82.57,-95.5 -127,-223.9 -123.3,-356.1 2.96,-105.5 43.72,-205.3 113.2,-277.3 69.51,-72 162.02,-110.4 257.09,-106.5 l 340,13.7 -49.3,880.4"
           style="fill:url(#linearGradient273);fill-opacity:1;fill-rule:nonzero;stroke:none"
           id="path275" /></g></g><g
       id="g277"><g
         id="g279"
         clip-path="url(#clipPath283)"><path
           d="m 16463.8,8991.5 c -257.1,591.8 -886,687.9 -1421.3,411.2 -9.3,-12.3 -3399.1,-1749.6 -6388.52,-2511 85.58,-274.4 129.57,-566.3 139.18,-853.2 1.73,-64 0.66,-127 -3.09,-189.2 2292.43,117.7 4780.43,882.2 6918.33,1554.1 663,213.8 1040.4,932.2 755.4,1588.1"
           style="fill:url(#linearGradient289);fill-opacity:1;fill-rule:nonzero;stroke:none"
           id="path291" /></g></g><g
       id="g293"><g
         id="g295"
         clip-path="url(#clipPath299)"><path
           d="m 14067.6,5993.5 c -9,330.7 55.3,638.7 192.9,923.7 3.9,13.1 8.6,25.6 12.8,38.5 -170.7,52.9 -391.2,124.5 -680.9,222.8 -2122.8,726.5 -3742.26,1460 -5287.84,2304.4 -600.43,328 -1283.12,108.2 -1475.32,-602.3 -171.59,-634.2 205.2,-1175.7 777.07,-1366 1710.87,-569.3 820.07,-411.2 1378.85,-591 1500.64,-464 3367.94,-886.7 5086.04,-1002.1 -1.3,24 -2.8,48.1 -3.6,72"
           style="fill:url(#linearGradient305);fill-opacity:1;fill-rule:nonzero;stroke:none"
           id="path307" /></g></g><g
       id="g309"><g
         id="g311"
         clip-path="url(#clipPath315)"><path
           d="m 10356.2,14640.3 c 0,0 228.3,-989.4 1336.7,-968.8 1129,20.5 1229.6,972 1229.6,972 l -737.4,157.8 -61.7,821.7 -1109.3,-82.2 -20.5,-780.6 -637.4,-119.9"
           style="fill:url(#linearGradient321);fill-opacity:1;fill-rule:nonzero;stroke:none"
           id="path323" /></g></g><g
       id="g325"><g
         id="g327"
         clip-path="url(#clipPath331)"><path
           d="m 11169.9,17951.2 c 0,0 -1271.28,-2462.5 236.7,-3060 1063.7,-421.3 1730.6,1635.3 1531.7,2192.4 -307.6,861.3 -510.1,759.1 -510.1,759.1 l -1258.3,108.5"
           style="fill:url(#linearGradient337);fill-opacity:1;fill-rule:nonzero;stroke:none"
           id="path339" /></g></g><g
       id="g341"><g
         id="g343"
         clip-path="url(#clipPath347)"><path
           d="m 13244.2,18175.2 c 628,-172.6 91.3,-1534.6 -854.2,-1212.5 -945.6,322.1 -1317.1,317.3 -1464.5,57.7 -147.3,-259.6 -179,-1181.6 -498.6,-725.9 -350.5,499.6 -545.96,1502.5 -116.2,1825.8 384,288.9 473.7,736.8 934.3,721.3 611.4,-20.6 1084.3,250.4 1360.3,55 316.9,-224.5 176.8,-594.4 638.9,-721.4"
           style="fill:url(#linearGradient353);fill-opacity:1;fill-rule:nonzero;stroke:none"
           id="path355" /></g></g><g
       id="g357"><g
         id="g359"
         clip-path="url(#clipPath363)"><path
           d="m 10867.4,16808.7 c 0,0 -271.1,291.7 -314.5,-59.9 -43.4,-351.6 95.9,-804.4 259.1,-556.2 163.3,248.2 55.4,616.1 55.4,616.1"
           style="fill:url(#linearGradient369);fill-opacity:1;fill-rule:nonzero;stroke:none"
           id="path371" /></g></g><g
       id="g373"><g
         id="g375"
         clip-path="url(#clipPath379)"><path
           d="m 11947.3,10174 c 26.2,-177.5 -68.8,-338.6 -246.3,-364.9 -177.6,-26.2 -342.7,96.4 -369,273.9 -26.3,177.5 55,353.8 232.5,380 177.5,26.3 356.5,-111.5 382.8,-289"
           style="fill:url(#linearGradient385);fill-opacity:1;fill-rule:nonzero;stroke:none"
           id="path387" /></g></g></g></svg>
