<svg width="325" height="370" viewBox="0 0 325 370" fill="none" xmlns="http://www.w3.org/2000/svg">
<g clip-path="url(#clip0_205_2)">
<path d="M305.524 104.241L213.892 104.241C212.151 104.241 210.48 103.549 209.249 102.318C208.017 101.086 207.325 99.4159 207.325 97.6743V30.9678C207.325 29.2269 208.017 27.5574 209.248 26.3264C210.479 25.0954 212.148 24.4039 213.889 24.4039L305.527 24.4039C307.268 24.4039 308.938 25.0954 310.169 26.3264C311.4 27.5574 312.091 29.2269 312.091 30.9678V97.6743C312.091 99.4159 311.399 101.086 310.168 102.318C308.936 103.549 307.266 104.241 305.524 104.241Z" fill="white"/>
<path d="M207.051 97.6739V30.9673C207.051 29.1537 207.772 27.4144 209.054 26.1319C210.337 24.8495 212.076 24.1291 213.89 24.1291H305.528C307.341 24.1291 309.081 24.8495 310.363 26.1319C311.645 27.4144 312.366 29.1537 312.366 30.9673V97.6739C312.366 98.5723 312.189 99.4619 311.845 100.292C311.501 101.122 310.997 101.876 310.362 102.511C309.727 103.147 308.973 103.651 308.143 103.994C307.313 104.338 306.423 104.515 305.525 104.515H213.893C212.994 104.515 212.105 104.338 211.275 103.994C210.445 103.651 209.69 103.147 209.055 102.511C208.42 101.876 207.916 101.122 207.572 100.292C207.228 99.4619 207.051 98.5723 207.051 97.6739ZM213.89 24.6778C212.222 24.6783 210.622 25.3411 209.443 26.5206C208.264 27.7 207.602 29.2995 207.602 30.9673V97.6739C207.602 99.3428 208.265 100.943 209.445 102.123C210.625 103.303 212.225 103.966 213.894 103.966H305.525C307.193 103.966 308.794 103.303 309.974 102.123C311.154 100.943 311.817 99.3428 311.817 97.6739V30.9673C311.817 29.2992 311.154 27.6995 309.975 26.52C308.795 25.3404 307.196 24.6778 305.528 24.6778H213.89Z" fill="#292A2E"/>
<path d="M207.326 30.9664V36.5246H312.091V30.9664C312.091 29.2256 311.399 27.556 310.168 26.3251C308.937 25.0941 307.268 24.4026 305.527 24.4026H213.89C213.028 24.4026 212.174 24.5723 211.378 24.9022C210.581 25.2321 209.858 25.7156 209.248 26.3251C208.639 26.9346 208.155 27.6582 207.826 28.4546C207.496 29.251 207.326 30.1045 207.326 30.9664Z" fill="#292A2E"/>
<path d="M243.105 45.5091H238.161C238.103 45.5091 238.047 45.486 238.006 45.4448C237.965 45.4037 237.942 45.3478 237.942 45.2896C237.942 45.2314 237.965 45.1756 238.006 45.1344C238.047 45.0932 238.103 45.0701 238.161 45.0701H243.105C243.163 45.0701 243.219 45.0932 243.26 45.1344C243.301 45.1756 243.324 45.2314 243.324 45.2896C243.324 45.3478 243.301 45.4037 243.26 45.4448C243.219 45.486 243.163 45.5091 243.105 45.5091Z" fill="#292A2E"/>
<path d="M234.596 45.5091H232.725C232.667 45.5091 232.611 45.486 232.57 45.4448C232.529 45.4037 232.506 45.3478 232.506 45.2896C232.506 45.2314 232.529 45.1756 232.57 45.1344C232.611 45.0932 232.667 45.0701 232.725 45.0701H234.596C234.654 45.0701 234.71 45.0932 234.751 45.1344C234.792 45.1756 234.815 45.2314 234.815 45.2896C234.815 45.3478 234.792 45.4037 234.751 45.4448C234.71 45.486 234.654 45.5091 234.596 45.5091Z" fill="#367CFF"/>
<path d="M234.596 49.4689H232.725C232.667 49.4689 232.611 49.4457 232.57 49.4046C232.529 49.3634 232.506 49.3076 232.506 49.2494C232.506 49.1911 232.529 49.1353 232.57 49.0942C232.611 49.053 232.667 49.0299 232.725 49.0299H234.596C234.654 49.0299 234.71 49.053 234.751 49.0942C234.792 49.1353 234.815 49.1911 234.815 49.2494C234.815 49.3076 234.792 49.3634 234.751 49.4046C234.71 49.4457 234.654 49.4689 234.596 49.4689Z" fill="#367CFF"/>
<path d="M234.596 53.4286H232.725C232.667 53.4286 232.611 53.4055 232.57 53.3643C232.529 53.3232 232.506 53.2673 232.506 53.2091C232.506 53.1509 232.529 53.0951 232.57 53.0539C232.611 53.0127 232.667 52.9896 232.725 52.9896H234.596C234.654 52.9896 234.71 53.0127 234.751 53.0539C234.792 53.0951 234.815 53.1509 234.815 53.2091C234.815 53.2673 234.792 53.3232 234.751 53.3643C234.71 53.4055 234.654 53.4286 234.596 53.4286Z" fill="#367CFF"/>
<path d="M234.596 57.3884H232.725C232.667 57.3884 232.611 57.3653 232.57 57.3241C232.529 57.2829 232.506 57.2271 232.506 57.1689C232.506 57.1107 232.529 57.0548 232.57 57.0137C232.611 56.9725 232.667 56.9494 232.725 56.9494H234.596C234.654 56.9494 234.71 56.9725 234.751 57.0137C234.792 57.0548 234.815 57.1107 234.815 57.1689C234.815 57.2271 234.792 57.2829 234.751 57.3241C234.71 57.3653 234.654 57.3884 234.596 57.3884Z" fill="#367CFF"/>
<path d="M234.596 61.3481H232.725C232.667 61.3481 232.611 61.325 232.57 61.2838C232.529 61.2427 232.506 61.1868 232.506 61.1286C232.506 61.0704 232.529 61.0146 232.57 60.9734C232.611 60.9323 232.667 60.9091 232.725 60.9091H234.596C234.654 60.9091 234.71 60.9323 234.751 60.9734C234.792 61.0146 234.815 61.0704 234.815 61.1286C234.815 61.1868 234.792 61.2427 234.751 61.2838C234.71 61.325 234.654 61.3481 234.596 61.3481Z" fill="#367CFF"/>
<path d="M234.596 65.3079H232.725C232.667 65.3079 232.611 65.2848 232.57 65.2436C232.529 65.2024 232.506 65.1466 232.506 65.0884C232.506 65.0302 232.529 64.9743 232.57 64.9332C232.611 64.892 232.667 64.8689 232.725 64.8689H234.596C234.654 64.8689 234.71 64.892 234.751 64.9332C234.792 64.9743 234.815 65.0302 234.815 65.0884C234.815 65.1466 234.792 65.2024 234.751 65.2436C234.71 65.2848 234.654 65.3079 234.596 65.3079Z" fill="#367CFF"/>
<path d="M234.596 69.2676H232.725C232.667 69.2676 232.611 69.2445 232.57 69.2034C232.529 69.1622 232.506 69.1064 232.506 69.0481C232.506 68.9899 232.529 68.9341 232.57 68.8929C232.611 68.8518 232.667 68.8286 232.725 68.8286H234.596C234.654 68.8286 234.71 68.8518 234.751 68.8929C234.792 68.9341 234.815 68.9899 234.815 69.0481C234.815 69.1064 234.792 69.1622 234.751 69.2034C234.71 69.2445 234.654 69.2676 234.596 69.2676Z" fill="#367CFF"/>
<path d="M234.596 73.2274H232.725C232.667 73.2274 232.611 73.2043 232.57 73.1631C232.529 73.122 232.506 73.0661 232.506 73.0079C232.506 72.9497 232.529 72.8939 232.57 72.8527C232.611 72.8116 232.667 72.7884 232.725 72.7884H234.596C234.654 72.7884 234.71 72.8116 234.751 72.8527C234.792 72.8939 234.815 72.9497 234.815 73.0079C234.815 73.0661 234.792 73.122 234.751 73.1631C234.71 73.2043 234.654 73.2274 234.596 73.2274Z" fill="#367CFF"/>
<path d="M234.596 77.1872H232.725C232.667 77.1872 232.611 77.1641 232.57 77.1229C232.529 77.0817 232.506 77.0259 232.506 76.9677C232.506 76.9095 232.529 76.8536 232.57 76.8125C232.611 76.7713 232.667 76.7482 232.725 76.7482H234.596C234.654 76.7482 234.71 76.7713 234.751 76.8125C234.792 76.8536 234.815 76.9095 234.815 76.9677C234.815 77.0259 234.792 77.0817 234.751 77.1229C234.71 77.1641 234.654 77.1872 234.596 77.1872Z" fill="#367CFF"/>
<path d="M234.596 81.1469H232.725C232.667 81.1469 232.611 81.1238 232.57 81.0826C232.529 81.0415 232.506 80.9856 232.506 80.9274C232.506 80.8692 232.529 80.8134 232.57 80.7722C232.611 80.731 232.667 80.7079 232.725 80.7079H234.596C234.654 80.7079 234.71 80.731 234.751 80.7722C234.792 80.8134 234.815 80.8692 234.815 80.9274C234.815 80.9856 234.792 81.0415 234.751 81.0826C234.71 81.1238 234.654 81.1469 234.596 81.1469Z" fill="#367CFF"/>
<path d="M234.596 85.1067H232.725C232.667 85.1067 232.611 85.0836 232.57 85.0424C232.529 85.0012 232.506 84.9454 232.506 84.8872C232.506 84.829 232.529 84.7731 232.57 84.732C232.611 84.6908 232.667 84.6677 232.725 84.6677H234.596C234.654 84.6677 234.71 84.6908 234.751 84.732C234.792 84.7731 234.815 84.829 234.815 84.8872C234.815 84.9454 234.792 85.0012 234.751 85.0424C234.71 85.0836 234.654 85.1067 234.596 85.1067Z" fill="#367CFF"/>
<path d="M234.596 89.0665H232.725C232.667 89.0665 232.611 89.0433 232.57 89.0022C232.529 88.961 232.506 88.9052 232.506 88.847C232.506 88.7887 232.529 88.7329 232.57 88.6917C232.611 88.6506 232.667 88.6275 232.725 88.6275H234.596C234.654 88.6275 234.71 88.6506 234.751 88.6917C234.792 88.7329 234.815 88.7887 234.815 88.847C234.815 88.9052 234.792 88.961 234.751 89.0022C234.71 89.0433 234.654 89.0665 234.596 89.0665Z" fill="#367CFF"/>
<path d="M234.596 93.0262H232.725C232.667 93.0262 232.611 93.0031 232.57 92.9619C232.529 92.9207 232.506 92.8649 232.506 92.8067C232.506 92.7485 232.529 92.6926 232.57 92.6515C232.611 92.6103 232.667 92.5872 232.725 92.5872H234.596C234.654 92.5872 234.71 92.6103 234.751 92.6515C234.792 92.6926 234.815 92.7485 234.815 92.8067C234.815 92.8649 234.792 92.9207 234.751 92.9619C234.71 93.0031 234.654 93.0262 234.596 93.0262Z" fill="#367CFF"/>
<path d="M234.596 96.9864H232.725C232.667 96.9864 232.611 96.9632 232.57 96.9221C232.529 96.8809 232.506 96.8251 232.506 96.7669C232.506 96.7087 232.529 96.6528 232.57 96.6117C232.611 96.5705 232.667 96.5474 232.725 96.5474H234.596C234.654 96.5474 234.71 96.5705 234.751 96.6117C234.792 96.6528 234.815 96.7087 234.815 96.7669C234.815 96.8251 234.792 96.8809 234.751 96.9221C234.71 96.9632 234.654 96.9864 234.596 96.9864Z" fill="#367CFF"/>
<path d="M247.056 49.4689H242.551C242.493 49.4689 242.437 49.4457 242.396 49.4046C242.355 49.3634 242.332 49.3076 242.332 49.2494C242.332 49.1912 242.355 49.1353 242.396 49.0942C242.437 49.053 242.493 49.0299 242.551 49.0299H247.056C247.114 49.0299 247.17 49.053 247.211 49.0942C247.252 49.1353 247.275 49.1912 247.275 49.2494C247.275 49.3076 247.252 49.3634 247.211 49.4046C247.17 49.4457 247.114 49.4689 247.056 49.4689Z" fill="#292A2E"/>
<path d="M243.105 73.2274H238.161C238.103 73.2274 238.047 73.2043 238.006 73.1631C237.965 73.1219 237.942 73.0661 237.942 73.0079C237.942 72.9497 237.965 72.8939 238.006 72.8527C238.047 72.8115 238.103 72.7884 238.161 72.7884H243.105C243.163 72.7884 243.219 72.8115 243.26 72.8527C243.301 72.8939 243.324 72.9497 243.324 73.0079C243.324 73.0661 243.301 73.1219 243.26 73.1631C243.219 73.2043 243.163 73.2274 243.105 73.2274Z" fill="#292A2E"/>
<path d="M247.056 77.1872H242.551C242.493 77.1872 242.437 77.164 242.396 77.1229C242.355 77.0817 242.332 77.0259 242.332 76.9677C242.332 76.9095 242.355 76.8536 242.396 76.8125C242.437 76.7713 242.493 76.7482 242.551 76.7482H247.056C247.114 76.7482 247.17 76.7713 247.211 76.8125C247.252 76.8536 247.275 76.9095 247.275 76.9677C247.275 77.0259 247.252 77.0817 247.211 77.1229C247.17 77.164 247.114 77.1872 247.056 77.1872Z" fill="#292A2E"/>
<path d="M272.518 53.4286H245.624C245.566 53.4286 245.51 53.4055 245.469 53.3643C245.428 53.3232 245.405 53.2673 245.405 53.2091C245.405 53.1509 245.428 53.0951 245.469 53.0539C245.51 53.0127 245.566 52.9896 245.624 52.9896H272.518C272.576 52.9896 272.632 53.0127 272.673 53.0539C272.714 53.0951 272.737 53.1509 272.737 53.2091C272.737 53.2673 272.714 53.3232 272.673 53.3643C272.632 53.4055 272.576 53.4286 272.518 53.4286Z" fill="#292A2E"/>
<path d="M296.262 53.4286H277.271C277.213 53.4286 277.157 53.4055 277.116 53.3643C277.074 53.3232 277.051 53.2674 277.051 53.2091C277.051 53.1509 277.074 53.0951 277.116 53.0539C277.157 53.0128 277.213 52.9896 277.271 52.9896H296.262C296.32 52.9896 296.376 53.0128 296.417 53.0539C296.458 53.0951 296.481 53.1509 296.481 53.2091C296.481 53.2674 296.458 53.3232 296.417 53.3643C296.376 53.4055 296.32 53.4286 296.262 53.4286Z" fill="#0CBC8B"/>
<path d="M306.454 53.4286H300.633C300.574 53.4286 300.519 53.4055 300.477 53.3643C300.436 53.3232 300.413 53.2674 300.413 53.2091C300.413 53.1509 300.436 53.0951 300.477 53.0539C300.519 53.0128 300.574 52.9896 300.633 52.9896H306.454C306.512 52.9896 306.568 53.0128 306.609 53.0539C306.65 53.0951 306.673 53.1509 306.673 53.2091C306.673 53.2674 306.65 53.3232 306.609 53.3643C306.568 53.4055 306.512 53.4286 306.454 53.4286Z" fill="#292A2E"/>
<path d="M285.688 61.3481H245.624C245.566 61.3481 245.51 61.325 245.469 61.2839C245.428 61.2427 245.405 61.1869 245.405 61.1286C245.405 61.0704 245.428 61.0146 245.469 60.9734C245.51 60.9323 245.566 60.9091 245.624 60.9091H285.688C285.746 60.9091 285.802 60.9323 285.843 60.9734C285.884 61.0146 285.907 61.0704 285.907 61.1286C285.907 61.1869 285.884 61.2427 285.843 61.2839C285.802 61.325 285.746 61.3481 285.688 61.3481Z" fill="#292A2E"/>
<path d="M296.262 61.3481H290.441C290.382 61.3481 290.327 61.325 290.285 61.2838C290.244 61.2427 290.221 61.1868 290.221 61.1286C290.221 61.0704 290.244 61.0146 290.285 60.9734C290.327 60.9323 290.382 60.9091 290.441 60.9091H296.262C296.32 60.9091 296.376 60.9323 296.417 60.9734C296.458 61.0146 296.481 61.0704 296.481 61.1286C296.481 61.1868 296.458 61.2427 296.417 61.2838C296.376 61.325 296.32 61.3481 296.262 61.3481Z" fill="#367CFF"/>
<path d="M250.568 57.3884H245.624C245.566 57.3884 245.51 57.3653 245.469 57.3241C245.428 57.2829 245.405 57.2271 245.405 57.1689C245.405 57.1107 245.428 57.0548 245.469 57.0137C245.51 56.9725 245.566 56.9494 245.624 56.9494H250.568C250.626 56.9494 250.682 56.9725 250.723 57.0137C250.764 57.0548 250.787 57.1107 250.787 57.1689C250.787 57.2271 250.764 57.2829 250.723 57.3241C250.682 57.3653 250.626 57.3884 250.568 57.3884Z" fill="#0CBC8B"/>
<path d="M283.092 57.3884H255.321C255.263 57.3884 255.207 57.3652 255.166 57.3241C255.125 57.2829 255.102 57.2271 255.102 57.1689C255.102 57.1107 255.125 57.0548 255.166 57.0137C255.207 56.9725 255.263 56.9494 255.321 56.9494H283.092C283.15 56.9494 283.206 56.9725 283.247 57.0137C283.288 57.0548 283.312 57.1107 283.312 57.1689C283.312 57.2271 283.288 57.2829 283.247 57.3241C283.206 57.3652 283.15 57.3884 283.092 57.3884Z" fill="#367CFF"/>
<path d="M306.492 57.3884H288.377C288.319 57.3884 288.263 57.3652 288.222 57.3241C288.181 57.2829 288.158 57.2271 288.158 57.1689C288.158 57.1107 288.181 57.0548 288.222 57.0137C288.263 56.9725 288.319 56.9494 288.377 56.9494H306.491C306.549 56.9494 306.605 56.9725 306.646 57.0137C306.687 57.0548 306.71 57.1107 306.71 57.1689C306.71 57.2271 306.687 57.2829 306.646 57.3241C306.605 57.3652 306.549 57.3884 306.491 57.3884H306.492Z" fill="#292A2E"/>
<path d="M272.518 65.3079H245.624C245.566 65.3079 245.51 65.2847 245.469 65.2436C245.428 65.2024 245.405 65.1466 245.405 65.0884C245.405 65.0301 245.428 64.9743 245.469 64.9332C245.51 64.892 245.566 64.8689 245.624 64.8689H272.518C272.576 64.8689 272.632 64.892 272.673 64.9332C272.714 64.9743 272.737 65.0301 272.737 65.0884C272.737 65.1466 272.714 65.2024 272.673 65.2436C272.632 65.2847 272.576 65.3079 272.518 65.3079Z" fill="#292A2E"/>
<path d="M287.482 65.3079H277.271C277.213 65.3079 277.157 65.2848 277.116 65.2436C277.074 65.2024 277.051 65.1466 277.051 65.0884C277.051 65.0302 277.074 64.9743 277.116 64.9332C277.157 64.892 277.213 64.8689 277.271 64.8689H287.482C287.54 64.8689 287.596 64.892 287.637 64.9332C287.678 64.9743 287.701 65.0302 287.701 65.0884C287.701 65.1466 287.678 65.2024 287.637 65.2436C287.596 65.2848 287.54 65.3079 287.482 65.3079Z" fill="#0CBC8B"/>
<path d="M306.453 65.3079H291.852C291.794 65.3079 291.738 65.2848 291.697 65.2436C291.656 65.2024 291.633 65.1466 291.633 65.0884C291.633 65.0302 291.656 64.9743 291.697 64.9332C291.738 64.892 291.794 64.8689 291.852 64.8689H306.453C306.512 64.8689 306.567 64.892 306.609 64.9332C306.65 64.9743 306.673 65.0302 306.673 65.0884C306.673 65.1466 306.65 65.2024 306.609 65.2436C306.567 65.2848 306.512 65.3079 306.453 65.3079Z" fill="#292A2E"/>
<path d="M250.568 69.2676H245.624C245.566 69.2676 245.51 69.2445 245.469 69.2034C245.428 69.1622 245.405 69.1064 245.405 69.0481C245.405 68.9899 245.428 68.9341 245.469 68.8929C245.51 68.8518 245.566 68.8286 245.624 68.8286H250.568C250.626 68.8286 250.682 68.8518 250.723 68.8929C250.764 68.9341 250.787 68.9899 250.787 69.0481C250.787 69.1064 250.764 69.1622 250.723 69.2034C250.682 69.2445 250.626 69.2676 250.568 69.2676Z" fill="#367CFF"/>
<path d="M283.092 69.2676H255.321C255.263 69.2676 255.207 69.2445 255.166 69.2034C255.125 69.1622 255.102 69.1064 255.102 69.0481C255.102 68.9899 255.125 68.9341 255.166 68.8929C255.207 68.8518 255.263 68.8286 255.321 68.8286H283.092C283.15 68.8286 283.206 68.8518 283.247 68.8929C283.288 68.9341 283.312 68.9899 283.312 69.0481C283.312 69.1064 283.288 69.1622 283.247 69.2034C283.206 69.2445 283.15 69.2676 283.092 69.2676Z" fill="#0CBC8B"/>
<path d="M271.64 85.1067H244.746C244.688 85.1067 244.632 85.0835 244.591 85.0424C244.55 85.0012 244.527 84.9454 244.527 84.8872C244.527 84.8289 244.55 84.7731 244.591 84.732C244.632 84.6908 244.688 84.6677 244.746 84.6677H271.64C271.698 84.6677 271.754 84.6908 271.795 84.732C271.836 84.7731 271.859 84.8289 271.859 84.8872C271.859 84.9454 271.836 85.0012 271.795 85.0424C271.754 85.0835 271.698 85.1067 271.64 85.1067Z" fill="#292A2E"/>
<path d="M295.384 85.1067H276.393C276.335 85.1067 276.279 85.0836 276.238 85.0424C276.196 85.0012 276.173 84.9454 276.173 84.8872C276.173 84.829 276.196 84.7731 276.238 84.732C276.279 84.6908 276.335 84.6677 276.393 84.6677H295.384C295.442 84.6677 295.498 84.6908 295.539 84.732C295.58 84.7731 295.603 84.829 295.603 84.8872C295.603 84.9454 295.58 85.0012 295.539 85.0424C295.498 85.0836 295.442 85.1067 295.384 85.1067Z" fill="#367CFF"/>
<path d="M258.47 81.1469H244.746C244.688 81.1469 244.632 81.1238 244.591 81.0826C244.55 81.0414 244.527 80.9856 244.527 80.9274C244.527 80.8692 244.55 80.8133 244.591 80.7722C244.632 80.731 244.688 80.7079 244.746 80.7079H258.47C258.528 80.7079 258.584 80.731 258.625 80.7722C258.666 80.8133 258.689 80.8692 258.689 80.9274C258.689 80.9856 258.666 81.0414 258.625 81.0826C258.584 81.1238 258.528 81.1469 258.47 81.1469Z" fill="#0CBC8B"/>
<path d="M282.214 81.1469H263.223C263.165 81.1469 263.109 81.1238 263.068 81.0826C263.027 81.0415 263.003 80.9856 263.003 80.9274C263.003 80.8692 263.027 80.8134 263.068 80.7722C263.109 80.731 263.165 80.7079 263.223 80.7079H282.214C282.272 80.7079 282.328 80.731 282.369 80.7722C282.41 80.8134 282.433 80.8692 282.433 80.9274C282.433 80.9856 282.41 81.0415 282.369 81.0826C282.328 81.1238 282.272 81.1469 282.214 81.1469Z" fill="#367CFF"/>
<path d="M305.614 81.1469H287.499C287.441 81.1469 287.385 81.1238 287.344 81.0826C287.303 81.0415 287.28 80.9856 287.28 80.9274C287.28 80.8692 287.303 80.8134 287.344 80.7722C287.385 80.731 287.441 80.7079 287.499 80.7079H305.613C305.671 80.7079 305.727 80.731 305.768 80.7722C305.809 80.8134 305.832 80.8692 305.832 80.9274C305.832 80.9856 305.809 81.0415 305.768 81.0826C305.727 81.1238 305.671 81.1469 305.613 81.1469H305.614Z" fill="#292A2E"/>
<path d="M284.81 93.0266H244.746C244.688 93.0266 244.632 93.0035 244.591 92.9623C244.55 92.9212 244.527 92.8653 244.527 92.8071C244.527 92.7489 244.55 92.6931 244.591 92.6519C244.632 92.6107 244.688 92.5876 244.746 92.5876H284.81C284.868 92.5876 284.924 92.6107 284.965 92.6519C285.006 92.6931 285.029 92.7489 285.029 92.8071C285.029 92.8653 285.006 92.9212 284.965 92.9623C284.924 93.0035 284.868 93.0266 284.81 93.0266Z" fill="#367CFF"/>
<path d="M295.384 93.0266H289.563C289.505 93.0266 289.449 93.0035 289.408 92.9623C289.366 92.9212 289.343 92.8653 289.343 92.8071C289.343 92.7489 289.366 92.6931 289.408 92.6519C289.449 92.6108 289.505 92.5876 289.563 92.5876H295.384C295.442 92.5876 295.498 92.6108 295.539 92.6519C295.58 92.6931 295.603 92.7489 295.603 92.8071C295.603 92.8653 295.58 92.9212 295.539 92.9623C295.498 93.0035 295.442 93.0266 295.384 93.0266Z" fill="#292A2E"/>
<path d="M249.69 89.0669H244.746C244.688 89.0669 244.632 89.0438 244.591 89.0026C244.55 88.9614 244.527 88.9056 244.527 88.8474C244.527 88.7892 244.55 88.7333 244.591 88.6922C244.632 88.651 244.688 88.6279 244.746 88.6279H249.69C249.748 88.6279 249.804 88.651 249.845 88.6922C249.886 88.7333 249.909 88.7892 249.909 88.8474C249.909 88.9056 249.886 88.9614 249.845 89.0026C249.804 89.0438 249.748 89.0669 249.69 89.0669Z" fill="#367CFF"/>
<path d="M282.214 89.0669H254.443C254.385 89.0669 254.329 89.0437 254.288 89.0026C254.247 88.9614 254.224 88.9056 254.224 88.8474C254.224 88.7892 254.247 88.7333 254.288 88.6922C254.329 88.651 254.385 88.6279 254.443 88.6279H282.214C282.272 88.6279 282.328 88.651 282.369 88.6922C282.411 88.7333 282.434 88.7892 282.434 88.8474C282.434 88.9056 282.411 88.9614 282.369 89.0026C282.328 89.0437 282.272 89.0669 282.214 89.0669Z" fill="#292A2E"/>
<path d="M305.614 89.0669H287.499C287.441 89.0669 287.385 89.0437 287.344 89.0026C287.303 88.9614 287.28 88.9056 287.28 88.8474C287.28 88.7892 287.303 88.7333 287.344 88.6922C287.385 88.651 287.441 88.6279 287.499 88.6279H305.613C305.671 88.6279 305.727 88.651 305.768 88.6922C305.809 88.7333 305.832 88.7892 305.832 88.8474C305.832 88.9056 305.809 88.9614 305.768 89.0026C305.727 89.0437 305.671 89.0669 305.613 89.0669H305.614Z" fill="#0CBC8B"/>
<path d="M271.64 96.9864H244.746C244.688 96.9864 244.632 96.9633 244.591 96.9221C244.55 96.8809 244.527 96.8251 244.527 96.7669C244.527 96.7087 244.55 96.6528 244.591 96.6117C244.632 96.5705 244.688 96.5474 244.746 96.5474H271.64C271.698 96.5474 271.754 96.5705 271.795 96.6117C271.836 96.6528 271.859 96.7087 271.859 96.7669C271.859 96.8251 271.836 96.8809 271.795 96.9221C271.754 96.9633 271.698 96.9864 271.64 96.9864Z" fill="#0CBC8B"/>
<path d="M286.604 96.9864H276.393C276.335 96.9864 276.279 96.9633 276.238 96.9221C276.196 96.8809 276.173 96.8251 276.173 96.7669C276.173 96.7087 276.196 96.6528 276.238 96.6117C276.279 96.5705 276.335 96.5474 276.393 96.5474H286.604C286.662 96.5474 286.718 96.5705 286.759 96.6117C286.8 96.6528 286.823 96.7087 286.823 96.7669C286.823 96.8251 286.8 96.8809 286.759 96.9221C286.718 96.9633 286.662 96.9864 286.604 96.9864Z" fill="#292A2E"/>
<path d="M305.575 96.9864H290.974C290.916 96.9864 290.86 96.9633 290.819 96.9221C290.778 96.8809 290.755 96.8251 290.755 96.7669C290.755 96.7087 290.778 96.6528 290.819 96.6117C290.86 96.5705 290.916 96.5474 290.974 96.5474H305.575C305.634 96.5474 305.689 96.5705 305.731 96.6117C305.772 96.6528 305.795 96.7087 305.795 96.7669C305.795 96.8251 305.772 96.8809 305.731 96.9221C305.689 96.9633 305.634 96.9864 305.575 96.9864Z" fill="#367CFF"/>
<path d="M230.641 101.224C230.583 101.224 230.527 101.2 230.486 101.159C230.445 101.118 230.421 101.062 230.421 101.004V38.5967C230.421 38.5384 230.445 38.4826 230.486 38.4414C230.527 38.4003 230.583 38.3772 230.641 38.3772C230.699 38.3772 230.755 38.4003 230.796 38.4414C230.837 38.4826 230.86 38.5384 230.86 38.5967V101.004C230.86 101.062 230.837 101.118 230.796 101.159C230.755 101.2 230.699 101.224 230.641 101.224Z" fill="#292A2E"/>
<path d="M304.154 34.4249C306.099 34.4249 307.676 32.8482 307.676 30.9032C307.676 28.9583 306.099 27.3816 304.154 27.3816C302.209 27.3816 300.632 28.9583 300.632 30.9032C300.632 32.8482 302.209 34.4249 304.154 34.4249Z" fill="white"/>
<path d="M220.601 41.3386H211.096C211.038 41.3386 210.982 41.3155 210.941 41.2744C210.9 41.2332 210.876 41.1774 210.876 41.1191C210.876 41.0609 210.9 41.0051 210.941 40.9639C210.982 40.9228 211.038 40.8996 211.096 40.8996H220.601C220.659 40.8996 220.715 40.9228 220.756 40.9639C220.798 41.0051 220.821 41.0609 220.821 41.1191C220.821 41.1774 220.798 41.2332 220.756 41.2744C220.715 41.3155 220.659 41.3386 220.601 41.3386Z" fill="#292A2E"/>
<path d="M217.738 45.668H211.096C211.038 45.668 210.982 45.6449 210.941 45.6037C210.9 45.5626 210.876 45.5067 210.876 45.4485C210.876 45.3903 210.9 45.3345 210.941 45.2933C210.982 45.2522 211.038 45.229 211.096 45.229H217.738C217.796 45.229 217.852 45.2522 217.893 45.2933C217.934 45.3345 217.957 45.3903 217.957 45.4485C217.957 45.5067 217.934 45.5626 217.893 45.6037C217.852 45.6449 217.796 45.668 217.738 45.668Z" fill="#292A2E"/>
<path d="M223.578 49.9974H211.096C211.038 49.9974 210.982 49.9743 210.941 49.9331C210.9 49.892 210.876 49.8361 210.876 49.7779C210.876 49.7197 210.9 49.6639 210.941 49.6227C210.982 49.5816 211.038 49.5584 211.096 49.5584H223.578C223.637 49.5584 223.692 49.5816 223.734 49.6227C223.775 49.6639 223.798 49.7197 223.798 49.7779C223.798 49.8361 223.775 49.892 223.734 49.9331C223.692 49.9743 223.637 49.9974 223.578 49.9974Z" fill="#292A2E"/>
<path d="M225.908 54.3268H215.486C215.428 54.3268 215.372 54.3037 215.331 54.2625C215.29 54.2214 215.267 54.1655 215.267 54.1073C215.267 54.0491 215.29 53.9933 215.331 53.9521C215.372 53.911 215.428 53.8878 215.486 53.8878H225.908C225.966 53.8878 226.022 53.911 226.063 53.9521C226.104 53.9933 226.127 54.0491 226.127 54.1073C226.127 54.1655 226.104 54.2214 226.063 54.2625C226.022 54.3037 225.966 54.3268 225.908 54.3268Z" fill="#292A2E"/>
<path d="M220.868 58.6567H215.486C215.428 58.6567 215.372 58.6335 215.331 58.5924C215.29 58.5512 215.267 58.4954 215.267 58.4372C215.267 58.379 215.29 58.3231 215.331 58.282C215.372 58.2408 215.428 58.2177 215.486 58.2177H220.868C220.926 58.2177 220.982 58.2408 221.023 58.282C221.065 58.3231 221.088 58.379 221.088 58.4372C221.088 58.4954 221.065 58.5512 221.023 58.5924C220.982 58.6335 220.926 58.6567 220.868 58.6567Z" fill="#292A2E"/>
<path d="M224.991 62.9861H215.486C215.428 62.9861 215.372 62.9629 215.331 62.9218C215.29 62.8806 215.267 62.8248 215.267 62.7666C215.267 62.7083 215.29 62.6525 215.331 62.6113C215.372 62.5702 215.428 62.5471 215.486 62.5471H224.991C225.05 62.5471 225.105 62.5702 225.146 62.6113C225.188 62.6525 225.211 62.7083 225.211 62.7666C225.211 62.8248 225.188 62.8806 225.146 62.9218C225.105 62.9629 225.05 62.9861 224.991 62.9861Z" fill="#292A2E"/>
<path d="M218.425 67.3154H211.096C211.038 67.3154 210.982 67.2923 210.941 67.2512C210.9 67.21 210.876 67.1542 210.876 67.0959C210.876 67.0377 210.9 66.9819 210.941 66.9407C210.982 66.8996 211.038 66.8764 211.096 66.8764H218.425C218.483 66.8764 218.539 66.8996 218.58 66.9407C218.621 66.9819 218.645 67.0377 218.645 67.0959C218.645 67.1542 218.621 67.21 218.58 67.2512C218.539 67.2923 218.483 67.3154 218.425 67.3154Z" fill="#292A2E"/>
<path d="M215.906 71.6444H211.096C211.038 71.6444 210.982 71.6213 210.941 71.5801C210.9 71.5389 210.876 71.4831 210.876 71.4249C210.876 71.3667 210.9 71.3109 210.941 71.2697C210.982 71.2285 211.038 71.2054 211.096 71.2054H215.906C215.964 71.2054 216.02 71.2285 216.061 71.2697C216.102 71.3109 216.125 71.3667 216.125 71.4249C216.125 71.4831 216.102 71.5389 216.061 71.5801C216.02 71.6213 215.964 71.6444 215.906 71.6444Z" fill="#292A2E"/>
<path d="M234.298 40.4097V40.4887L237.041 41.5072C237.081 41.5232 237.114 41.5506 237.138 41.5858C237.161 41.621 237.173 41.6624 237.173 41.7048V41.7794C237.174 41.8124 237.166 41.845 237.151 41.8742C237.135 41.9033 237.113 41.9281 237.085 41.9462C237.057 41.9658 237.025 41.9781 236.991 41.982C236.958 41.9858 236.923 41.981 236.892 41.9682L233.793 40.7565C233.754 40.7411 233.721 40.7144 233.698 40.68C233.674 40.6456 233.661 40.605 233.661 40.5634V40.3395C233.661 40.2977 233.673 40.2568 233.697 40.2223C233.72 40.1878 233.754 40.1613 233.793 40.1463L236.892 38.9303C236.917 38.9217 236.944 38.9172 236.971 38.9171C237.011 38.918 237.051 38.9301 237.085 38.9523C237.113 38.9713 237.136 38.9969 237.151 39.0268C237.166 39.0566 237.174 39.0899 237.173 39.1235V39.1981C237.174 39.24 237.162 39.2811 237.138 39.3158C237.115 39.3504 237.081 39.3768 237.041 39.3912L234.298 40.4097Z" fill="#367CFF"/>
<path d="M239.736 38.0347L238.095 43.0613C238.081 43.1032 238.055 43.1398 238.019 43.1659C237.984 43.1919 237.941 43.206 237.897 43.2061C237.865 43.2066 237.834 43.1993 237.805 43.1847C237.777 43.1702 237.753 43.1489 237.735 43.1227C237.715 43.0968 237.702 43.0666 237.696 43.0346C237.689 43.0026 237.691 42.9697 237.7 42.9383L239.341 37.9162C239.355 37.8735 239.382 37.8361 239.418 37.8094C239.455 37.7826 239.498 37.7678 239.543 37.767C239.575 37.7668 239.606 37.7744 239.635 37.7889C239.663 37.8034 239.687 37.8245 239.706 37.8504C239.725 37.8763 239.738 37.9066 239.744 37.9388C239.749 37.9709 239.747 38.0038 239.736 38.0347Z" fill="#367CFF"/>
<path d="M243.768 40.3395V40.5634C243.769 40.6046 243.757 40.6451 243.734 40.6796C243.712 40.714 243.679 40.7408 243.641 40.7565L240.537 41.9682C240.507 41.9809 240.473 41.9856 240.44 41.9818C240.407 41.9779 240.376 41.9657 240.349 41.9462C240.32 41.9283 240.297 41.9037 240.281 41.8746C240.265 41.8454 240.257 41.8127 240.256 41.7794V41.7048C240.256 41.6618 240.269 41.6199 240.293 41.5845C240.318 41.5492 240.352 41.5222 240.392 41.5072L243.136 40.4887V40.4097L240.392 39.3912C240.352 39.3778 240.317 39.3518 240.293 39.3171C240.268 39.2823 240.255 39.2406 240.256 39.1981V39.1235C240.257 39.0895 240.265 39.0562 240.281 39.0263C240.297 38.9965 240.32 38.971 240.349 38.9522C240.383 38.9302 240.422 38.9181 240.463 38.9171C240.488 38.9168 240.514 38.9213 240.537 38.9303L243.641 40.1463C243.68 40.1615 243.712 40.1882 243.735 40.2228C243.758 40.2574 243.77 40.2981 243.768 40.3395Z" fill="#367CFF"/>
<path d="M181.701 0H27.0752V154.626H181.701V0Z" fill="#F4F4F4"/>
<path d="M27.075 0H25.3027V154.626H27.075V0Z" fill="#F4F4F4"/>
<path opacity="0.05" d="M27.075 0H25.3027V154.626H27.075V0Z" fill="#292A2E"/>
<path opacity="0.05" d="M64.5336 106.55V66.0946H97.6726V89.5985H149.005V131.214H170.821V154.626H149.005H144.802H34.5132V106.55H64.5336Z" fill="#292A2E"/>
<path opacity="0.34" d="M93.4188 70.4872H69.2866V74.8798H93.4188V70.4872Z" fill="#FFFFFA"/>
<path opacity="0.34" d="M93.4188 79.5894H69.2866V83.982H93.4188V79.5894Z" fill="#FFFFFA"/>
<path opacity="0.34" d="M93.4188 88.6915H69.2866V93.0841H93.4188V88.6915Z" fill="#FFFFFA"/>
<path opacity="0.34" d="M43.2404 110.813H38.7925V115.206H43.2404V110.813Z" fill="#FFFFFA"/>
<path opacity="0.34" d="M43.2404 119.916H38.7925V124.308H43.2404V119.916Z" fill="#FFFFFA"/>
<path opacity="0.34" d="M43.2404 129.018H38.7925V133.411H43.2404V129.018Z" fill="#FFFFFA"/>
<path opacity="0.34" d="M51.4689 110.813H47.021V115.206H51.4689V110.813Z" fill="#FFFFFA"/>
<path opacity="0.34" d="M51.4689 119.916H47.021V124.308H51.4689V119.916Z" fill="#FFFFFA"/>
<path opacity="0.34" d="M51.4689 129.018H47.021V133.411H51.4689V129.018Z" fill="#FFFFFA"/>
<path opacity="0.34" d="M59.4753 110.813H55.0273V115.206H59.4753V110.813Z" fill="#FFFFFA"/>
<path opacity="0.34" d="M59.4753 119.916H55.0273V124.308H59.4753V119.916Z" fill="#FFFFFA"/>
<path opacity="0.34" d="M59.4753 129.018H55.0273V133.411H59.4753V129.018Z" fill="#FFFFFA"/>
<path d="M27.0752 76.4457H58.1887V0H60.7617V76.4457H144.802V0H147.375V76.4457H181.701V79.0187H147.375V154.626H144.802V79.0187H60.7617V154.626H58.1887V79.0187H27.0752V76.4457Z" fill="white"/>
<path d="M187.861 154.439H20.9155V159.582H187.861V154.439Z" fill="#F4F4F4"/>
<path opacity="0.1" d="M187.861 154.439H20.9155V159.582H187.861V154.439Z" fill="#292A2E"/>
<path opacity="0.1" d="M20.9154 154.439H18.5049V159.582H20.9154V154.439Z" fill="#292A2E"/>
<path opacity="0.1" d="M20.9154 154.439H18.5049V159.582H20.9154V154.439Z" fill="#292A2E"/>
<path d="M25.303 6.58321L181.701 6.58321V2.75998L25.303 2.75998V6.58321Z" fill="white"/>
<path d="M25.303 13.7248L181.701 13.7248V9.90159L25.303 9.90159V13.7248Z" fill="white"/>
<path d="M25.303 20.866L181.701 20.866V17.0428L25.303 17.0428V20.866Z" fill="white"/>
<path d="M25.303 28.0072L181.701 28.0072V24.1839L25.303 24.1839V28.0072Z" fill="white"/>
<path d="M25.303 35.1479L181.701 35.1479V31.3247L25.303 31.3247V35.1479Z" fill="white"/>
<path d="M41.914 39.4602H44.2578L44.2578 3.8147e-06H41.914L41.914 39.4602Z" fill="white"/>
<path d="M42.887 45.1272C44.6654 45.1272 46.1071 43.6855 46.1071 41.9071C46.1071 40.1288 44.6654 38.6871 42.887 38.6871C41.1087 38.6871 39.667 40.1288 39.667 41.9071C39.667 43.6855 41.1087 45.1272 42.887 45.1272Z" fill="white"/>
<path d="M26.6679 369.555L25.8057 369.389L39.2811 235.481L40.1433 235.647L26.6679 369.555Z" fill="#494949"/>
<path d="M76.8446 369.555L75.9824 369.389L89.4574 235.481L90.3196 235.647L76.8446 369.555Z" fill="#494949"/>
<path d="M187.757 369.555L188.619 369.389L175.143 235.481L174.281 235.647L187.757 369.555Z" fill="#494949"/>
<path d="M137.58 369.555L138.442 369.389L124.967 235.481L124.105 235.647L137.58 369.555Z" fill="#494949"/>
<path d="M119.71 176.548L118.839 176.664L126.711 235.624L127.582 235.507L119.71 176.548Z" fill="#494949"/>
<path d="M29.3532 176.547L28.4829 176.664L36.355 235.623L37.2253 235.507L29.3532 176.547Z" fill="#494949"/>
<path d="M127.506 231.247H39.1266C36.7421 231.247 34.8091 233.18 34.8091 235.564V235.565C34.8091 237.949 36.7421 239.882 39.1266 239.882H127.506C129.89 239.882 131.823 237.949 131.823 235.565V235.564C131.823 233.18 129.89 231.247 127.506 231.247Z" fill="#292A2E"/>
<path opacity="0.8" d="M127.506 231.247H39.1266C36.7421 231.247 34.8091 233.18 34.8091 235.564V235.565C34.8091 237.949 36.7421 239.882 39.1266 239.882H127.506C129.89 239.882 131.823 237.949 131.823 235.565V235.564C131.823 233.18 129.89 231.247 127.506 231.247Z" fill="white"/>
<path d="M127.506 240.321H39.1271C38.5025 240.321 37.884 240.198 37.3069 239.959C36.7298 239.72 36.2055 239.369 35.7638 238.928C35.3221 238.486 34.9717 237.962 34.7327 237.385C34.4936 236.807 34.3706 236.189 34.3706 235.564C34.3706 234.94 34.4936 234.321 34.7327 233.744C34.9717 233.167 35.3221 232.643 35.7638 232.201C36.2055 231.759 36.7298 231.409 37.3069 231.17C37.884 230.931 38.5025 230.808 39.1271 230.808H127.506C128.13 230.808 128.749 230.931 129.326 231.17C129.903 231.409 130.427 231.759 130.869 232.201C131.311 232.643 131.661 233.167 131.9 233.744C132.139 234.321 132.262 234.94 132.262 235.564C132.262 236.189 132.139 236.807 131.9 237.385C131.661 237.962 131.311 238.486 130.869 238.928C130.427 239.369 129.903 239.72 129.326 239.959C128.749 240.198 128.13 240.321 127.506 240.321ZM39.1271 231.686C38.6178 231.686 38.1135 231.786 37.6429 231.981C37.1723 232.176 36.7448 232.462 36.3846 232.822C36.0244 233.182 35.7388 233.609 35.5438 234.08C35.3489 234.551 35.2486 235.055 35.2486 235.564C35.2486 236.074 35.3489 236.578 35.5438 237.049C35.7388 237.519 36.0244 237.947 36.3846 238.307C36.7448 238.667 37.1723 238.953 37.6429 239.148C38.1135 239.343 38.6178 239.443 39.1271 239.443H127.506C128.015 239.443 128.519 239.343 128.99 239.148C129.461 238.953 129.888 238.667 130.248 238.307C130.608 237.947 130.894 237.519 131.089 237.049C131.284 236.578 131.384 236.074 131.384 235.564C131.384 235.055 131.284 234.551 131.089 234.08C130.894 233.609 130.608 233.182 130.248 232.822C129.888 232.462 129.461 232.176 128.99 231.981C128.519 231.786 128.015 231.686 127.506 231.686H39.1271Z" fill="#292A2E"/>
<path d="M176.013 231.247H87.6344C85.2499 231.247 83.3169 233.18 83.3169 235.564V235.565C83.3169 237.949 85.2499 239.882 87.6344 239.882H176.013C178.398 239.882 180.331 237.949 180.331 235.565V235.564C180.331 233.18 178.398 231.247 176.013 231.247Z" fill="white"/>
<path d="M176.013 240.321H87.6345C87.0098 240.321 86.3913 240.198 85.8142 239.959C85.2371 239.72 84.7128 239.369 84.2711 238.928C83.8294 238.486 83.479 237.962 83.24 237.385C83.001 236.807 82.8779 236.189 82.8779 235.564C82.8779 234.94 83.001 234.321 83.24 233.744C83.479 233.167 83.8294 232.643 84.2711 232.201C84.7128 231.759 85.2371 231.409 85.8142 231.17C86.3913 230.931 87.0098 230.808 87.6345 230.808H176.013C176.638 230.808 177.257 230.931 177.834 231.17C178.411 231.409 178.935 231.759 179.377 232.201C179.819 232.643 180.169 233.167 180.408 233.744C180.647 234.321 180.77 234.94 180.77 235.564C180.77 236.189 180.647 236.807 180.408 237.385C180.169 237.962 179.819 238.486 179.377 238.928C178.935 239.369 178.411 239.72 177.834 239.959C177.257 240.198 176.638 240.321 176.013 240.321ZM87.6345 231.686C87.1251 231.686 86.6208 231.786 86.1502 231.981C85.6796 232.176 85.2521 232.462 84.8919 232.822C84.5318 233.182 84.2461 233.609 84.0512 234.08C83.8562 234.551 83.7559 235.055 83.7559 235.564C83.7559 236.074 83.8562 236.578 84.0512 237.049C84.2461 237.519 84.5318 237.947 84.8919 238.307C85.2521 238.667 85.6796 238.953 86.1502 239.148C86.6208 239.343 87.1251 239.443 87.6345 239.443H176.013C176.523 239.443 177.027 239.343 177.498 239.148C177.968 238.953 178.396 238.667 178.756 238.307C179.116 237.947 179.402 237.519 179.597 237.049C179.792 236.578 179.892 236.074 179.892 235.564C179.892 235.055 179.792 234.551 179.597 234.08C179.402 233.609 179.116 233.182 178.756 232.822C178.396 232.462 177.968 232.176 177.498 231.981C177.027 231.786 176.523 231.686 176.013 231.686H87.6345Z" fill="#292A2E"/>
<path d="M114.868 176.605H29.1551C27.7537 176.605 26.4002 176.095 25.3473 175.17C24.2943 174.246 23.6138 172.969 23.4328 171.58L17.7631 128.04C17.6572 127.226 17.7261 126.399 17.9652 125.614C18.2043 124.829 18.6082 124.104 19.1499 123.487C19.6916 122.87 20.3586 122.376 21.1064 122.038C21.8542 121.699 22.6656 121.524 23.4863 121.525H109.198C110.6 121.525 111.953 122.035 113.006 122.959C114.059 123.884 114.74 125.16 114.921 126.55L120.59 170.09C120.696 170.903 120.627 171.73 120.388 172.516C120.149 173.301 119.745 174.026 119.204 174.642C118.662 175.259 117.995 175.753 117.248 176.092C116.5 176.43 115.689 176.605 114.868 176.605Z" fill="#292A2E"/>
<path opacity="0.8" d="M114.868 176.605H29.1551C27.7537 176.605 26.4002 176.095 25.3473 175.17C24.2943 174.246 23.6138 172.969 23.4328 171.58L17.7631 128.04C17.6572 127.226 17.7261 126.399 17.9652 125.614C18.2043 124.829 18.6082 124.104 19.1499 123.487C19.6916 122.87 20.3586 122.376 21.1064 122.038C21.8542 121.699 22.6656 121.524 23.4863 121.525H109.198C110.6 121.525 111.953 122.035 113.006 122.959C114.059 123.884 114.74 125.16 114.921 126.55L120.59 170.09C120.696 170.903 120.627 171.73 120.388 172.516C120.149 173.301 119.745 174.026 119.204 174.642C118.662 175.259 117.995 175.753 117.248 176.092C116.5 176.43 115.689 176.605 114.868 176.605Z" fill="white"/>
<path d="M114.868 177.044H29.155C27.6479 177.041 26.1932 176.491 25.0608 175.496C23.9284 174.502 23.1951 173.13 22.9972 171.636L17.328 128.097C17.2138 127.221 17.2878 126.331 17.5451 125.486C17.8023 124.641 18.2369 123.861 18.8198 123.197C19.4027 122.533 20.1204 122.002 20.9251 121.637C21.7298 121.273 22.6029 121.085 23.4862 121.085H109.198C110.705 121.088 112.16 121.638 113.292 122.633C114.425 123.628 115.158 124.999 115.356 126.493L121.025 170.033C121.139 170.909 121.065 171.799 120.808 172.644C120.551 173.488 120.116 174.269 119.534 174.932C118.951 175.596 118.233 176.127 117.429 176.492C116.624 176.856 115.751 177.044 114.868 177.044ZM23.4862 121.963C22.7279 121.963 21.9784 122.125 21.2876 122.438C20.5968 122.75 19.9807 123.207 19.4803 123.777C18.9799 124.346 18.6069 125.016 18.386 125.742C18.1651 126.467 18.1015 127.231 18.1994 127.983L23.869 171.523C24.0389 172.806 24.6683 173.983 25.6406 174.837C26.6128 175.691 27.8619 176.163 29.1559 176.166H114.868C115.626 176.166 116.376 176.004 117.066 175.691C117.757 175.378 118.373 174.922 118.873 174.352C119.373 173.783 119.746 173.113 119.967 172.387C120.188 171.662 120.251 170.898 120.153 170.146L114.485 126.607C114.315 125.324 113.686 124.147 112.714 123.293C111.741 122.439 110.492 121.967 109.198 121.964L23.4862 121.963Z" fill="#292A2E"/>
<path d="M119.715 176.605H34.0017C32.6003 176.605 31.2469 176.095 30.194 175.17C29.1411 174.245 28.4607 172.969 28.2798 171.58L22.6083 128.04C22.5024 127.226 22.5713 126.399 22.8104 125.614C23.0494 124.829 23.4533 124.104 23.9948 123.487C24.5364 122.871 25.2033 122.377 25.951 122.038C26.6987 121.7 27.51 121.525 28.3307 121.525H114.045C115.447 121.525 116.8 122.035 117.853 122.959C118.906 123.884 119.586 125.16 119.767 126.55L125.437 170.09C125.543 170.903 125.474 171.731 125.235 172.516C124.996 173.301 124.592 174.026 124.05 174.643C123.509 175.259 122.842 175.753 122.094 176.092C121.347 176.43 120.535 176.605 119.715 176.605Z" fill="white"/>
<path d="M119.715 177.044H34.0015C32.4945 177.041 31.0398 176.491 29.9075 175.496C28.7752 174.502 28.042 173.13 27.8442 171.636L22.1745 128.097C22.0605 127.221 22.1346 126.331 22.3919 125.486C22.6492 124.641 23.0837 123.861 23.6665 123.197C24.2493 122.534 24.967 122.002 25.7715 121.638C26.5761 121.274 27.4491 121.085 28.3323 121.085H114.045C115.552 121.089 117.007 121.639 118.139 122.633C119.271 123.628 120.005 124.999 120.203 126.493L125.872 170.033C125.986 170.909 125.912 171.799 125.655 172.644C125.397 173.488 124.963 174.269 124.38 174.932C123.797 175.596 123.08 176.127 122.275 176.492C121.471 176.856 120.598 177.044 119.715 177.044ZM28.3323 121.963C27.5742 121.963 26.8248 122.125 26.1342 122.438C25.4437 122.751 24.8278 123.208 24.3276 123.778C23.8274 124.347 23.4545 125.017 23.2337 125.742C23.0129 126.468 22.9494 127.232 23.0472 127.984L28.7147 171.523C28.8847 172.806 29.5142 173.983 30.4864 174.837C31.4587 175.691 32.7076 176.163 34.0015 176.166H119.715C120.473 176.166 121.222 176.004 121.913 175.692C122.604 175.379 123.22 174.923 123.72 174.353C124.221 173.783 124.594 173.113 124.815 172.388C125.036 171.662 125.099 170.898 125.001 170.146L119.332 126.607C119.162 125.324 118.532 124.146 117.56 123.293C116.588 122.439 115.339 121.966 114.045 121.964L28.3323 121.963Z" fill="#292A2E"/>
<path d="M186.341 186.546L185.468 186.635L203.975 369.85L204.848 369.762L186.341 186.546Z" fill="#494949"/>
<path d="M110.477 54.6828C110.477 54.6828 116.173 50.3837 117.584 40.4879C118.677 32.826 111.609 37.7898 111.609 37.7898C111.609 37.7898 112.342 32.265 108.317 32.8133C104.291 33.3616 102.039 39.1652 102.039 39.1652" fill="#0C0C0C"/>
<path d="M87.5133 33.4599C87.5133 33.4599 67.5411 35.6027 74.7613 62.6642L76.5287 62.7828L80.1162 63.0233" fill="#0C0C0C"/>
<path d="M107.132 90.9278C107.045 90.9164 106.07 107.083 87.287 105.675C74.2839 104.701 69.6477 90.905 69.3496 90.905C70.7518 90.6073 72.4841 90.1547 73.1728 89.9997C74.6734 89.6514 76.0324 88.8544 77.0689 87.7148C78.1055 86.5752 78.7705 85.147 78.9755 83.6202C79.3561 81.3287 78.7121 69.6039 78.9092 67.2851L98.8691 71.7401C98.5903 76.6375 96.6381 87.9904 103.479 89.9997C104.619 90.3321 105.845 90.6376 107.132 90.9278Z" fill="#E98862"/>
<path opacity="0.52" d="M99.1496 85.36C98.837 84.3523 98.6356 83.3135 98.549 82.262C98.3299 79.8626 98.3741 77.4465 98.6807 75.0567C94.6239 74.5093 90.8019 72.8349 87.6491 70.2238C87.2786 71.5926 85.2404 77.5735 85.8053 78.8742C86.8699 81.3335 91.882 85.36 99.1496 85.36Z" fill="#0C0C0C"/>
<path d="M95.0303 82.1601C87.1556 81.4538 77.7307 76.4786 77.5951 65.7895L77.4722 56.1447C77.3365 45.456 82.8402 36.7195 92.9047 36.5913C102.969 36.4636 110.602 45.0328 110.737 55.7219L110.792 59.9916C110.785 61.458 110.678 62.9223 110.472 64.3742C109.955 68.2154 109.155 74.0554 106.548 78.0059C104.086 81.7356 100.061 82.611 95.0303 82.1601Z" fill="#E98862"/>
<path d="M98.6835 72.3907C100.309 72.4643 101.928 72.155 103.412 71.4876C103.442 71.4746 103.47 71.4556 103.493 71.4317C103.517 71.4079 103.535 71.3797 103.547 71.3488C103.56 71.3178 103.566 71.2848 103.566 71.2514C103.565 71.2181 103.559 71.1851 103.545 71.1544C103.532 71.1238 103.513 71.096 103.49 71.0727C103.466 71.0493 103.438 71.0309 103.407 71.0185C103.376 71.0061 103.343 70.9998 103.309 71.0002C103.276 71.0005 103.243 71.0075 103.212 71.0206C100.016 72.3836 97.1141 72.1839 94.8199 70.4433C94.7737 70.4065 94.7255 70.3724 94.6755 70.341C94.6178 70.3143 94.5523 70.3101 94.4917 70.3294C94.4311 70.3486 94.38 70.3898 94.3483 70.4449C94.3166 70.5 94.3067 70.565 94.3206 70.627C94.3344 70.689 94.371 70.7436 94.4231 70.78C94.4415 70.7914 94.4709 70.8147 94.5109 70.8467C95.7171 71.7652 97.17 72.3028 98.6835 72.3907Z" fill="#0C0C0C"/>
<path d="M98.6073 74.7977C98.9009 74.8158 99.1955 74.8088 99.4879 74.7766C99.5549 74.7695 99.6163 74.7361 99.6586 74.6838C99.7009 74.6314 99.7207 74.5644 99.7136 74.4974C99.7065 74.4305 99.6731 74.3691 99.6207 74.3268C99.5684 74.2845 99.5013 74.2647 99.4344 74.2718C97.6753 74.4588 96.836 73.6528 96.8004 73.6181C96.7528 73.5704 96.6883 73.5436 96.6209 73.5435C96.5536 73.5435 96.489 73.5701 96.4413 73.6177C96.3936 73.6652 96.3668 73.7298 96.3667 73.7971C96.3666 73.8645 96.3933 73.9291 96.4409 73.9768C97.0465 74.4925 97.812 74.7826 98.6073 74.7977Z" fill="#0C0C0C"/>
<path d="M107.414 62.047C108.098 62.047 108.653 61.492 108.653 60.8073C108.653 60.1226 108.098 59.5676 107.414 59.5676C106.729 59.5676 106.174 60.1226 106.174 60.8073C106.174 61.492 106.729 62.047 107.414 62.047Z" fill="#0C0C0C"/>
<path d="M95.3022 61.2871C95.9869 61.2871 96.542 60.7321 96.542 60.0474C96.542 59.3627 95.9869 58.8076 95.3022 58.8076C94.6175 58.8076 94.0625 59.3627 94.0625 60.0474C94.0625 60.7321 94.6175 61.2871 95.3022 61.2871Z" fill="#0C0C0C"/>
<path d="M78.2612 69.0381C75.2027 69.0771 72.682 65.8364 72.6421 62.778C72.6021 59.7195 75.061 58.0012 78.1195 57.9626L79.7214 59.9916L80.89 69.0047L78.2612 69.0381Z" fill="#E98862"/>
<path d="M81.302 64.1235C81.302 64.1235 82.3349 48.9987 86.9212 48.0645C89.9757 47.4424 97.3829 51.7753 104.244 50.4667C107.245 49.896 110.095 50.637 110.385 52.055C110.499 52.6165 112.369 44.5481 107.669 38.4268C103.927 33.5517 91.6795 32.1754 86.1077 33.7734C70.68 38.1994 77.488 58.6281 77.488 58.6281L78.1759 63.8425L81.302 64.1235Z" fill="#0C0C0C"/>
<path d="M100.53 68.8203H100.55C101.535 68.8102 103.187 68.6838 103.181 67.9463C103.174 67.3352 101.436 60.7577 101.237 60.0096C101.218 59.9475 101.176 59.8952 101.119 59.8636C101.062 59.8321 100.995 59.8237 100.932 59.8404C100.87 59.857 100.816 59.8974 100.782 59.9529C100.748 60.0084 100.738 60.0749 100.752 60.1383C101.524 63.0514 102.674 67.5362 102.679 67.9524C102.584 68.128 101.566 68.3089 100.545 68.3194C100.481 68.3208 100.419 68.3468 100.374 68.3921C100.328 68.4375 100.301 68.4986 100.299 68.563C100.298 68.6273 100.32 68.69 100.363 68.7379C100.406 68.7859 100.466 68.8155 100.53 68.8207V68.8203Z" fill="#0C0C0C"/>
<path d="M103.894 54.0845C104.93 53.7994 106.024 53.7994 107.06 54.0845C107.568 54.2212 108.054 54.4337 108.499 54.7149C108.94 54.9901 109.344 55.3199 109.702 55.6965C109.77 55.7629 109.81 55.8536 109.813 55.949C109.815 56.0445 109.781 56.1371 109.716 56.2071C109.651 56.2772 109.561 56.319 109.466 56.3236C109.37 56.3283 109.277 56.2954 109.205 56.2321L109.183 56.2127C108.851 55.906 108.483 55.6422 108.085 55.4274C107.696 55.2139 107.276 55.0605 106.84 54.9726C105.982 54.7927 105.092 54.8425 104.26 55.117L104.225 55.1293C104.088 55.1779 103.937 55.1699 103.805 55.1071C103.674 55.0443 103.573 54.9319 103.524 54.7946C103.476 54.6572 103.484 54.5062 103.546 54.3748C103.609 54.2434 103.721 54.1423 103.859 54.0937L103.894 54.0845Z" fill="#0C0C0C"/>
<path d="M96.5599 54.7074C95.7718 54.3244 94.8965 54.1564 94.0225 54.2206C93.579 54.2494 93.1423 54.3453 92.7275 54.505C92.3058 54.6652 91.9058 54.8775 91.5369 55.1372L91.5132 55.153C91.434 55.2038 91.3383 55.222 91.246 55.2041C91.1537 55.1861 91.0719 55.1333 91.0175 55.0565C90.9631 54.9798 90.9404 54.885 90.9541 54.792C90.9678 54.6989 91.0168 54.6147 91.0909 54.5568C91.4958 54.2312 91.9402 53.9581 92.4136 53.7438C92.8929 53.5249 93.4022 53.379 93.9246 53.311C94.9893 53.1658 96.0733 53.3111 97.0622 53.7315C97.1961 53.7897 97.3013 53.8988 97.3548 54.0346C97.4084 54.1704 97.4057 54.322 97.3475 54.4559C97.2893 54.5898 97.1803 54.695 97.0444 54.7486C96.9086 54.8021 96.7571 54.7994 96.6232 54.7412L96.5929 54.7267L96.5599 54.7074Z" fill="#0C0C0C"/>
<path d="M102.42 43.6733C104.684 43.2003 105.955 40.1157 105.259 36.7836C104.563 33.4515 102.163 31.1338 99.8994 31.6067C97.6355 32.0797 96.3646 35.1643 97.0608 38.4964C97.757 41.8285 100.157 44.1462 102.42 43.6733Z" fill="#0C0C0C"/>
<path d="M228.683 346.693C228.683 346.693 231.037 358.895 242.46 359.575C253.884 360.255 251.407 369.355 251.407 369.355H207.751V347.544L228.683 346.693Z" fill="#367CFF"/>
<path d="M145.63 338.99C145.63 338.99 142.356 350.977 152.307 356.63C162.258 362.282 156.017 369.355 156.017 369.355L116.845 350.083L126.472 330.512L145.63 338.99Z" fill="#367CFF"/>
<path d="M121.368 335.604L154.402 231.39H94.5227C82.4942 231.39 77.48 221.19 77.48 209.163C77.48 197.135 89.3048 186.591 101.332 186.591H182.148C189.484 186.591 197.71 191.078 201.736 197.21C205.763 203.343 204.674 212.846 201.757 219.578L148.857 348.057" fill="#262626"/>
<path opacity="0.8" d="M121.368 335.604L154.402 231.39H94.5227C82.4942 231.39 77.48 221.19 77.48 209.163C77.48 197.135 89.3048 186.591 101.332 186.591H182.148C189.484 186.591 197.71 191.078 201.736 197.21C205.763 203.343 204.674 212.846 201.757 219.578L148.857 348.057" fill="#0A0A0A"/>
<path d="M205.241 358.024L150.005 231.39L77.479 231.385C60.485 230.053 52.702 220.74 52.9496 208.715C53.1937 196.842 59.2053 185.115 71.0244 185.115H168.777C177.522 185.295 184.402 194.959 187.646 203.081L233.565 350.272" fill="#262626"/>
<path d="M48.0029 185.261C48.0029 185.261 44.7819 206.265 49.8875 217.943C56.2613 232.522 80.1551 231.386 80.1551 231.386L78.8086 185.115L48.0029 185.261Z" fill="#262626"/>
<path d="M189.724 184.847L138.493 174.231C136.358 173.789 134.369 172.815 132.711 171.401C131.052 169.986 129.777 168.176 129.003 166.137L108.853 113.039C108.24 111.446 107.947 109.747 107.992 108.04C108.037 106.333 108.419 104.651 109.116 103.092C109.813 101.533 110.811 100.127 112.052 98.955C113.294 97.7828 114.755 96.8675 116.352 96.2616C117.948 95.6558 119.649 95.3713 121.355 95.4246C123.062 95.4778 124.741 95.8678 126.297 96.572C127.853 97.2762 129.254 98.2809 130.42 99.5282C131.586 100.776 132.495 102.241 133.093 103.84L150.719 150.286L194.986 159.459C194.986 159.459 190.612 185.031 189.724 184.847Z" fill="#367CFF"/>
<path d="M130.47 126.523C129.878 133.474 125.685 176.837 125.114 185.398H48.0365C47.5936 177.676 46.1559 144.893 44.4763 129.794C42.8735 115.385 42.2918 107.163 44.1382 102.685C47.3947 94.7879 55.5438 91.9463 62.5634 90.9958C66.8493 90.4159 73.296 89.9998 73.296 89.9998C73.296 89.9998 73.8421 101.042 86.8575 101.656C104.575 102.491 103.392 89.9998 103.48 89.9998C106.35 89.9998 121.974 92.0872 125.88 94.6334C131.399 98.2301 133.029 103.131 133.094 107.634C133.168 112.819 131.141 118.64 130.47 126.523Z" fill="#367CFF"/>
<path d="M127.441 161.955H127.422C127.393 161.953 127.365 161.945 127.34 161.932C127.314 161.919 127.291 161.9 127.273 161.878C127.254 161.856 127.24 161.831 127.231 161.803C127.222 161.776 127.219 161.747 127.221 161.718L129.222 137.681C129.224 137.652 129.232 137.624 129.244 137.598C129.257 137.572 129.275 137.549 129.298 137.53C129.32 137.512 129.345 137.497 129.373 137.489C129.401 137.48 129.43 137.478 129.459 137.481C129.488 137.483 129.516 137.491 129.541 137.504C129.567 137.518 129.59 137.536 129.608 137.558C129.627 137.58 129.641 137.605 129.65 137.633C129.659 137.66 129.662 137.689 129.66 137.718L127.659 161.755C127.654 161.809 127.629 161.86 127.589 161.897C127.548 161.935 127.495 161.955 127.441 161.955Z" fill="#0C0C0C"/>
<path d="M164.149 176.382L181.061 124.394C181.358 123.48 181.937 122.684 182.714 122.12C183.492 121.555 184.428 121.251 185.388 121.251H258.68C259.398 121.251 260.106 121.421 260.746 121.747C261.386 122.073 261.94 122.546 262.362 123.127C262.784 123.709 263.062 124.381 263.175 125.091C263.287 125.8 263.229 126.526 263.007 127.209L241.705 179.199C241.408 180.112 240.829 180.908 240.052 181.473C239.275 182.037 238.339 182.341 237.378 182.342H168.476C167.758 182.342 167.05 182.172 166.409 181.845C165.769 181.519 165.216 181.046 164.793 180.465C164.371 179.883 164.093 179.21 163.981 178.501C163.869 177.791 163.927 177.065 164.149 176.382Z" fill="#292A2E"/>
<path d="M164.149 176.382L181.061 124.394C181.358 123.48 181.937 122.684 182.714 122.12C183.492 121.555 184.428 121.251 185.388 121.251H258.68C259.398 121.251 260.106 121.421 260.746 121.747C261.386 122.073 261.94 122.546 262.362 123.127C262.784 123.709 263.062 124.381 263.175 125.091C263.287 125.8 263.229 126.526 263.007 127.209L241.705 179.199C241.408 180.112 240.829 180.908 240.052 181.473C239.275 182.037 238.339 182.341 237.378 182.342H168.476C167.758 182.342 167.05 182.172 166.409 181.845C165.769 181.519 165.216 181.046 164.793 180.465C164.371 179.883 164.093 179.21 163.981 178.501C163.869 177.791 163.927 177.065 164.149 176.382Z" fill="#292A2E"/>
<path d="M177.945 178.124H131.822C130.673 178.124 129.741 179.056 129.741 180.205V180.259C129.741 181.408 130.673 182.339 131.822 182.339H177.945C179.094 182.339 180.026 181.408 180.026 180.259V180.205C180.026 179.056 179.094 178.124 177.945 178.124Z" fill="#292A2E"/>
<path d="M177.945 178.124H131.822C130.673 178.124 129.741 179.056 129.741 180.205V180.259C129.741 181.408 130.673 182.339 131.822 182.339H177.945C179.094 182.339 180.026 181.408 180.026 180.259V180.205C180.026 179.056 179.094 178.124 177.945 178.124Z" fill="#292A2E"/>
<path d="M211.383 161.558C215.374 161.558 218.609 158.323 218.609 154.332C218.609 150.341 215.374 147.105 211.383 147.105C207.392 147.105 204.157 150.341 204.157 154.332C204.157 158.323 207.392 161.558 211.383 161.558Z" fill="white"/>
<path d="M160.294 164.203L148.783 160.169L150.435 160.055C150.968 160.007 151.463 159.759 151.82 159.361C152.177 158.962 152.369 158.443 152.358 157.909C152.343 157.633 152.271 157.363 152.148 157.116C152.025 156.869 151.853 156.649 151.643 156.471C151.432 156.292 151.187 156.158 150.923 156.077C150.659 155.997 150.381 155.97 150.107 156L129.741 158.165L130.268 164.709C130.432 166.742 131.2 168.679 132.473 170.273C133.745 171.866 135.465 173.043 137.41 173.653L146.23 176.401C146.685 176.552 147.179 176.542 147.628 176.371C148.077 176.201 148.453 175.88 148.692 175.464C148.901 175.084 148.982 174.647 148.924 174.217C148.867 173.788 148.674 173.388 148.373 173.076C148.392 173.062 148.409 173.044 148.421 173.024C148.434 173.003 148.442 172.981 148.445 172.957C148.448 172.933 148.447 172.909 148.44 172.886C148.434 172.863 148.423 172.841 148.408 172.823L150.033 173.332C150.54 173.503 151.092 173.474 151.579 173.252C152.066 173.031 152.45 172.633 152.654 172.138C152.821 171.69 152.825 171.197 152.664 170.747C152.504 170.296 152.189 169.917 151.776 169.675C151.795 169.665 151.812 169.651 151.826 169.635L152.494 169.844C152.95 169.996 153.444 169.986 153.893 169.815C154.341 169.644 154.717 169.323 154.957 168.907C155.209 168.446 155.273 167.905 155.136 167.398C154.999 166.891 154.67 166.456 154.219 166.186C154.223 166.172 154.225 166.158 154.225 166.144L159.019 167.824C159.258 167.911 159.511 167.949 159.764 167.937C160.017 167.924 160.265 167.862 160.494 167.753C160.723 167.645 160.928 167.492 161.098 167.303C161.267 167.115 161.398 166.895 161.481 166.655C161.565 166.416 161.601 166.163 161.586 165.91C161.571 165.657 161.507 165.409 161.396 165.181C161.285 164.953 161.129 164.75 160.939 164.582C160.749 164.415 160.528 164.287 160.288 164.205L160.294 164.203Z" fill="#E98862"/>
<path opacity="0.2" d="M154.044 166.33C154.022 166.33 153.999 166.326 153.978 166.319L149.342 164.632C149.294 164.615 149.255 164.579 149.234 164.533C149.213 164.487 149.211 164.435 149.228 164.387C149.245 164.339 149.281 164.301 149.327 164.279C149.373 164.258 149.426 164.256 149.473 164.273L154.111 165.959C154.153 165.975 154.188 166.005 154.211 166.043C154.233 166.082 154.241 166.128 154.234 166.172C154.226 166.216 154.203 166.257 154.168 166.285C154.134 166.314 154.09 166.33 154.045 166.33H154.044Z" fill="#0A0A0A"/>
<path opacity="0.2" d="M151.699 169.701C151.677 169.701 151.655 169.697 151.635 169.69L147.98 168.393C147.956 168.385 147.934 168.373 147.914 168.356C147.895 168.339 147.879 168.319 147.868 168.296C147.857 168.273 147.85 168.248 147.849 168.223C147.847 168.198 147.851 168.172 147.86 168.148C147.868 168.124 147.881 168.102 147.898 168.083C147.915 168.064 147.936 168.049 147.959 168.039C147.982 168.028 148.007 168.022 148.033 168.021C148.058 168.02 148.084 168.024 148.107 168.033L151.762 169.33C151.805 169.345 151.841 169.375 151.863 169.414C151.886 169.452 151.895 169.498 151.887 169.542C151.879 169.587 151.856 169.627 151.822 169.656C151.787 169.685 151.744 169.701 151.699 169.701Z" fill="#0A0A0A"/>
<path opacity="0.2" d="M148.257 173.122C148.234 173.122 148.211 173.118 148.189 173.109L146.477 172.457C146.43 172.439 146.392 172.402 146.371 172.356C146.35 172.31 146.349 172.257 146.367 172.21C146.385 172.163 146.421 172.124 146.468 172.104C146.514 172.083 146.566 172.082 146.614 172.1L148.326 172.753C148.368 172.768 148.403 172.798 148.425 172.837C148.447 172.876 148.454 172.922 148.446 172.966C148.438 173.01 148.415 173.05 148.38 173.078C148.346 173.107 148.303 173.122 148.258 173.122H148.257Z" fill="#0A0A0A"/>
<path d="M138.756 154.291L90.4659 154.259L72.1974 109.695L44.9453 121.153L67.7372 174.043L67.9598 174.57C69.0749 177.141 70.9532 179.307 73.3403 180.774C75.7274 182.242 78.508 182.941 81.3053 182.775L139.485 179.338L138.756 154.291Z" fill="#367CFF"/>
<path d="M80.5057 183.018C77.7985 183.013 75.1513 182.22 72.8877 180.735C70.624 179.25 68.842 177.138 67.7594 174.657L67.5363 174.13L48.1138 129.065L48.5168 128.89L68.1619 174.484C69.2643 177.01 71.1135 179.137 73.4609 180.58C75.8083 182.023 78.5413 182.713 81.2923 182.556L139.259 179.132L138.541 154.512L90.3177 154.479L76.2698 120.214L76.6763 120.048L90.6114 154.04L138.967 154.073L139.71 179.545L139.497 179.558L81.3196 182.994C81.0478 183.01 80.7752 183.018 80.5057 183.018Z" fill="#0C0C0C"/>
<path d="M26.7942 186.549L8.27441 369.763L9.14796 369.851L27.6677 186.637L26.7942 186.549Z" fill="#494949"/>
<path d="M103.311 186.549L84.791 369.763L85.6646 369.851L104.184 186.637L103.311 186.549Z" fill="#494949"/>
<path d="M262.858 186.546L261.984 186.634L280.491 369.85L281.365 369.762L262.858 186.546Z" fill="#494949"/>
<path d="M279.547 182.994H11.3178C9.3312 182.994 7.7207 184.604 7.7207 186.591C7.7207 188.577 9.3312 190.188 11.3178 190.188H279.547C281.533 190.188 283.144 188.577 283.144 186.591C283.144 184.604 281.533 182.994 279.547 182.994Z" fill="#292A2E"/>
<path opacity="0.8" d="M279.547 182.994H11.3178C9.3312 182.994 7.7207 184.604 7.7207 186.591C7.7207 188.577 9.3312 190.188 11.3178 190.188H279.547C281.533 190.188 283.144 188.577 283.144 186.591C283.144 184.604 281.533 182.994 279.547 182.994Z" fill="white"/>
<path d="M279.547 190.627H11.3194C10.7859 190.632 10.2565 190.532 9.762 190.332C9.26746 190.131 8.81755 189.835 8.43829 189.46C8.05903 189.084 7.75796 188.637 7.55248 188.145C7.34701 187.653 7.24121 187.124 7.24121 186.591C7.24121 186.057 7.34701 185.529 7.55248 185.037C7.75796 184.544 8.05903 184.097 8.43829 183.722C8.81755 183.347 9.26746 183.05 9.762 182.85C10.2565 182.65 10.7859 182.549 11.3194 182.555H279.547C280.08 182.549 280.61 182.65 281.104 182.85C281.599 183.05 282.049 183.347 282.428 183.722C282.807 184.097 283.108 184.544 283.314 185.037C283.519 185.529 283.625 186.057 283.625 186.591C283.625 187.124 283.519 187.653 283.314 188.145C283.108 188.637 282.807 189.084 282.428 189.46C282.049 189.835 281.599 190.131 281.104 190.332C280.61 190.532 280.08 190.632 279.547 190.627ZM11.3194 183.433C10.9016 183.428 10.4869 183.506 10.0995 183.662C9.71203 183.819 9.35948 184.051 9.06227 184.345C8.76505 184.638 8.52909 184.988 8.36804 185.374C8.20699 185.759 8.12406 186.173 8.12406 186.591C8.12406 187.009 8.20699 187.422 8.36804 187.808C8.52909 188.194 8.76505 188.543 9.06227 188.837C9.35948 189.131 9.71203 189.363 10.0995 189.519C10.4869 189.676 10.9016 189.754 11.3194 189.749H279.547C279.965 189.754 280.379 189.676 280.767 189.519C281.154 189.363 281.507 189.131 281.804 188.837C282.101 188.543 282.337 188.194 282.498 187.808C282.659 187.422 282.742 187.009 282.742 186.591C282.742 186.173 282.659 185.759 282.498 185.374C282.337 184.988 282.101 184.638 281.804 184.345C281.507 184.051 281.154 183.819 280.767 183.662C280.379 183.506 279.965 183.428 279.547 183.433H11.3194Z" fill="#292A2E"/>
<path d="M279.547 182.994H90.7593C88.7726 182.994 87.1621 184.604 87.1621 186.591C87.1621 188.577 88.7726 190.188 90.7593 190.188H279.547C281.533 190.188 283.144 188.577 283.144 186.591C283.144 184.604 281.533 182.994 279.547 182.994Z" fill="white"/>
<path d="M279.547 190.627H90.7592C89.6961 190.616 88.6803 190.186 87.9325 189.43C87.1846 188.674 86.7651 187.654 86.7651 186.591C86.7651 185.528 87.1846 184.507 87.9325 183.752C88.6803 182.996 89.6961 182.566 90.7592 182.555H279.547C280.081 182.549 280.61 182.65 281.105 182.85C281.599 183.05 282.049 183.347 282.428 183.722C282.808 184.097 283.109 184.544 283.314 185.037C283.52 185.529 283.625 186.057 283.625 186.591C283.625 187.124 283.52 187.653 283.314 188.145C283.109 188.638 282.808 189.084 282.428 189.46C282.049 189.835 281.599 190.131 281.105 190.332C280.61 190.532 280.081 190.632 279.547 190.627ZM90.7592 183.433C89.9281 183.443 89.1344 183.78 88.5501 184.371C87.9659 184.962 87.6383 185.76 87.6383 186.591C87.6383 187.422 87.9659 188.22 88.5501 188.811C89.1344 189.402 89.9281 189.739 90.7592 189.749H279.547C279.965 189.754 280.38 189.676 280.767 189.519C281.155 189.363 281.507 189.131 281.804 188.837C282.102 188.543 282.337 188.194 282.499 187.808C282.66 187.422 282.743 187.009 282.743 186.591C282.743 186.173 282.66 185.759 282.499 185.374C282.337 184.988 282.102 184.638 281.804 184.345C281.507 184.051 281.155 183.819 280.767 183.663C280.38 183.506 279.965 183.428 279.547 183.433H90.7592Z" fill="#292A2E"/>
<path d="M286.782 311.442C286.724 311.443 286.667 311.431 286.614 311.409C286.56 311.387 286.512 311.355 286.471 311.314C285.853 310.696 284.845 299.348 282.129 265.56C281.018 251.735 279.968 238.677 279.202 230.741C279.148 230.174 278.928 230.108 278.856 230.087C277.807 229.77 274.618 232.285 272.838 234.487C272.765 234.577 272.659 234.635 272.543 234.647C272.427 234.659 272.311 234.625 272.221 234.552C272.13 234.479 272.072 234.373 272.06 234.257C272.048 234.141 272.082 234.025 272.155 233.934C273.333 232.479 277.169 228.662 279.108 229.246C279.499 229.363 279.986 229.703 280.076 230.657C280.843 238.6 281.893 251.661 283.004 265.49C284.654 286.022 286.524 309.282 287.138 310.747C287.185 310.813 287.213 310.89 287.219 310.971C287.225 311.051 287.209 311.132 287.172 311.204C287.135 311.276 287.079 311.336 287.011 311.378C286.942 311.42 286.863 311.442 286.782 311.442Z" fill="#494949"/>
<path d="M278.074 245.303C285.359 239.464 287.773 230.375 283.467 225.003C279.16 219.631 269.764 220.009 262.48 225.849C255.195 231.688 252.78 240.777 257.087 246.149C261.393 251.521 270.789 251.143 278.074 245.303Z" fill="#0CBC8B"/>
<path opacity="0.2" d="M278.074 245.303C285.359 239.464 287.773 230.375 283.467 225.003C279.16 219.631 269.764 220.009 262.48 225.849C255.195 231.688 252.78 240.777 257.087 246.149C261.393 251.521 270.789 251.143 278.074 245.303Z" fill="white"/>
<path d="M259.129 247.515C259.088 247.515 259.047 247.503 259.012 247.481C258.976 247.459 258.948 247.427 258.931 247.389C258.913 247.351 258.906 247.309 258.911 247.268C258.917 247.227 258.934 247.188 258.96 247.156L279.721 222.12C279.758 222.075 279.811 222.047 279.869 222.042C279.927 222.036 279.985 222.054 280.03 222.091C280.075 222.128 280.103 222.182 280.108 222.24C280.114 222.298 280.096 222.356 280.059 222.4L259.298 247.436C259.278 247.461 259.252 247.481 259.222 247.494C259.193 247.508 259.161 247.515 259.129 247.515Z" fill="white"/>
<path d="M291.309 306.076C291.239 306.076 291.17 306.059 291.108 306.027C291.046 305.995 290.992 305.948 290.952 305.891C290.911 305.834 290.885 305.768 290.875 305.698C290.865 305.629 290.872 305.558 290.895 305.492L298.694 283.066C298.923 282.407 299.315 281.816 299.832 281.347C300.349 280.879 300.975 280.548 301.654 280.384C302.332 280.22 303.04 280.229 303.714 280.41C304.388 280.591 305.006 280.939 305.511 281.42L309.634 285.358C309.718 285.439 309.767 285.55 309.769 285.666C309.772 285.782 309.728 285.895 309.648 285.979C309.567 286.064 309.457 286.112 309.34 286.115C309.224 286.118 309.111 286.074 309.027 285.994L304.904 282.055C304.506 281.675 304.018 281.401 303.486 281.258C302.954 281.115 302.395 281.108 301.859 281.237C301.324 281.366 300.829 281.628 300.421 281.998C300.013 282.367 299.704 282.834 299.523 283.354L291.725 305.781C291.695 305.867 291.639 305.942 291.564 305.995C291.49 306.047 291.401 306.076 291.309 306.076Z" fill="#494949"/>
<path d="M321.151 297.775C326.55 293.502 326.229 284.103 320.435 276.783C314.64 269.463 305.567 266.992 300.168 271.266C294.77 275.539 295.09 284.937 300.885 292.258C306.679 299.578 315.753 302.048 321.151 297.775Z" fill="#0CBC8B"/>
<path d="M283.241 310.012C283.142 310.012 283.047 309.979 282.969 309.918C282.892 309.857 282.837 309.771 282.814 309.675L269.725 254.957C269.636 254.584 269.445 254.243 269.174 253.971C268.904 253.7 268.563 253.508 268.191 253.417C267.818 253.326 267.428 253.34 267.062 253.457C266.697 253.573 266.371 253.789 266.12 254.079L262.086 258.741C262.048 258.785 262.002 258.821 261.951 258.848C261.899 258.874 261.842 258.89 261.785 258.894C261.727 258.899 261.669 258.892 261.614 258.874C261.558 258.855 261.508 258.826 261.464 258.788C261.42 258.751 261.384 258.704 261.358 258.652C261.332 258.6 261.317 258.544 261.313 258.486C261.309 258.428 261.317 258.37 261.335 258.315C261.354 258.26 261.384 258.21 261.422 258.166L265.456 253.504C265.813 253.092 266.276 252.786 266.796 252.62C267.315 252.455 267.87 252.435 268.4 252.564C268.929 252.694 269.413 252.967 269.798 253.353C270.182 253.739 270.453 254.224 270.579 254.755L283.666 309.473C283.692 309.586 283.673 309.705 283.612 309.803C283.551 309.902 283.454 309.973 283.341 310C283.308 310.008 283.275 310.012 283.241 310.012Z" fill="#494949"/>
<path d="M278.412 270.896C280.003 261.697 275.793 253.288 269.008 252.115C262.224 250.942 255.434 257.448 253.843 266.648C252.253 275.847 256.463 284.256 263.247 285.429C270.032 286.603 276.821 280.096 278.412 270.896Z" fill="#0CBC8B"/>
<path d="M286.782 311.442C286.764 311.442 286.746 311.441 286.728 311.439C286.671 311.432 286.615 311.414 286.565 311.386C286.515 311.357 286.471 311.319 286.435 311.274C286.4 311.228 286.374 311.176 286.358 311.121C286.343 311.065 286.339 311.007 286.346 310.95L294.702 243.1C294.793 242.361 295.096 241.663 295.574 241.092C296.052 240.521 296.684 240.1 297.395 239.879C298.107 239.659 298.867 239.649 299.584 239.85C300.301 240.051 300.944 240.455 301.437 241.013L310.989 251.831C311.066 251.919 311.105 252.033 311.098 252.149C311.091 252.266 311.038 252.374 310.951 252.451C310.863 252.528 310.749 252.568 310.633 252.56C310.516 252.553 310.408 252.5 310.331 252.413L300.779 241.594C300.398 241.163 299.901 240.851 299.346 240.695C298.792 240.54 298.205 240.548 297.655 240.718C297.105 240.888 296.616 241.214 296.247 241.655C295.878 242.097 295.644 242.636 295.574 243.207L287.217 311.057C287.204 311.163 287.153 311.261 287.073 311.332C286.992 311.403 286.889 311.442 286.782 311.442Z" fill="#494949"/>
<path d="M320.786 257.843C324.118 251.819 320.197 243.271 312.028 238.752C303.858 234.233 294.534 235.454 291.201 241.479C287.869 247.504 291.79 256.051 299.959 260.57C308.129 265.089 317.453 263.868 320.786 257.843Z" fill="#0CBC8B"/>
<path opacity="0.2" d="M321.151 297.775C326.55 293.502 326.229 284.103 320.435 276.783C314.64 269.463 305.567 266.992 300.168 271.266C294.77 275.539 295.09 284.937 300.885 292.258C306.679 299.578 315.753 302.048 321.151 297.775Z" fill="white"/>
<path opacity="0.5" d="M278.412 270.896C280.003 261.697 275.793 253.288 269.008 252.115C262.224 250.942 255.434 257.448 253.843 266.648C252.253 275.847 256.463 284.256 263.247 285.429C270.032 286.603 276.821 280.096 278.412 270.896Z" fill="white"/>
<path opacity="0.5" d="M320.786 257.843C324.118 251.819 320.197 243.271 312.028 238.752C303.858 234.233 294.534 235.454 291.201 241.479C287.869 247.504 291.79 256.051 299.959 260.57C308.129 265.089 317.453 263.868 320.786 257.843Z" fill="white"/>
<path d="M297.47 369.013H276.093L272.55 300.616H301.013L297.47 369.013Z" fill="#292A2E"/>
<path opacity="0.3" d="M297.47 369.013H276.093L272.55 300.616H301.013L297.47 369.013Z" fill="white"/>
<path d="M321.152 297.991C321.119 297.991 321.086 297.984 321.056 297.969C321.026 297.955 321 297.934 320.98 297.908L299.996 271.399C299.96 271.353 299.943 271.295 299.95 271.237C299.956 271.179 299.986 271.127 300.031 271.09C300.077 271.054 300.135 271.038 300.193 271.044C300.251 271.051 300.304 271.081 300.34 271.126L321.324 297.635C321.35 297.668 321.366 297.707 321.37 297.748C321.375 297.789 321.368 297.83 321.35 297.867C321.332 297.905 321.304 297.936 321.269 297.958C321.234 297.98 321.193 297.992 321.152 297.991Z" fill="white"/>
<path d="M319.39 259.967C319.343 259.967 319.298 259.951 319.261 259.923L292.409 240.317C292.362 240.283 292.33 240.231 292.321 240.173C292.312 240.116 292.327 240.057 292.361 240.01C292.395 239.963 292.447 239.932 292.505 239.923C292.562 239.914 292.621 239.928 292.668 239.962L319.52 259.569C319.557 259.597 319.584 259.635 319.598 259.679C319.611 259.723 319.611 259.77 319.596 259.814C319.582 259.858 319.554 259.896 319.516 259.923C319.479 259.95 319.434 259.964 319.388 259.964L319.39 259.967Z" fill="white"/>
<path d="M262.156 285.143C262.137 285.143 262.118 285.141 262.099 285.135C262.043 285.12 261.995 285.084 261.966 285.033C261.937 284.983 261.929 284.923 261.944 284.867L270.492 252.841C270.508 252.786 270.545 252.74 270.595 252.712C270.644 252.684 270.703 252.677 270.758 252.691C270.814 252.706 270.861 252.742 270.89 252.791C270.92 252.84 270.929 252.898 270.916 252.954L262.368 284.98C262.356 285.027 262.328 285.068 262.29 285.098C262.251 285.127 262.204 285.143 262.156 285.143Z" fill="white"/>
<path d="M307.791 369.63H0.307298C0.225798 369.63 0.147635 369.597 0.0900056 369.54C0.032376 369.482 0 369.404 0 369.322C0 369.241 0.032376 369.163 0.0900056 369.105C0.147635 369.047 0.225798 369.015 0.307298 369.015H307.79C307.872 369.015 307.95 369.047 308.007 369.105C308.065 369.163 308.097 369.241 308.097 369.322C308.097 369.404 308.065 369.482 308.007 369.54C307.95 369.597 307.872 369.63 307.79 369.63H307.791Z" fill="#292A2E"/>
<g opacity="0.65">
<path d="M307.791 369.63H0.307298C0.225798 369.63 0.147635 369.597 0.0900056 369.54C0.032376 369.482 0 369.404 0 369.322C0 369.241 0.032376 369.163 0.0900056 369.105C0.147635 369.047 0.225798 369.015 0.307298 369.015H307.79C307.872 369.015 307.95 369.047 308.007 369.105C308.065 369.163 308.097 369.241 308.097 369.322C308.097 369.404 308.065 369.482 308.007 369.54C307.95 369.597 307.872 369.63 307.79 369.63H307.791Z" fill="#292A2E"/>
</g>
</g>
<defs>
<clipPath id="clip0_205_2">
<rect width="325" height="369.851" fill="white"/>
</clipPath>
</defs>
</svg>
